<svg version="1.1" id="Layer_1" xmlns="http://www.w3.org/2000/svg" xmlns:xlink="http://www.w3.org/1999/xlink" x="0px" y="0px"
	 width="100%" viewBox="0 0 3000 3000" enable-background="new 0 0 3000 3000" xml:space="preserve">
<path fill="#FFFFFF" opacity="1.000000" stroke="none" 
	d="
M2744.000000,3002.000000 
	C1829.333496,3002.000000 915.666992,3002.000000 2.000368,3002.000000 
	C2.000245,2002.000366 2.000245,1002.000671 2.000123,2.000770 
	C1001.999512,2.000514 2001.999023,2.000514 3001.999023,2.000257 
	C3001.999268,1001.999268 3001.999268,2001.998535 3001.999512,3001.999023 
	C2916.333252,3002.000000 2830.666748,3002.000000 2744.000000,3002.000000 
M517.887939,1421.856445 
	C517.831299,1459.317017 517.760193,1496.777466 517.743408,1534.238037 
	C517.741943,1537.532959 518.096130,1540.828247 517.962463,1545.957764 
	C517.908936,1576.918091 517.770874,1607.878906 517.894226,1638.838501 
	C517.912476,1643.412476 518.632019,1648.139404 519.929565,1652.528931 
	C539.272400,1717.962646 595.206665,1765.197754 662.849854,1771.973633 
	C684.632080,1774.155518 706.708923,1773.311523 728.638000,1774.180176 
	C733.354980,1774.366943 735.999695,1772.016846 738.736450,1769.013306 
	C784.406311,1718.891846 825.408264,1665.371704 857.103760,1605.185425 
	C874.467407,1572.213989 888.462097,1537.999390 893.461365,1499.174561 
	C893.846619,1491.544434 894.546753,1483.915161 894.564392,1476.284180 
	C894.658325,1435.717407 894.577881,1395.150269 894.564453,1354.583252 
	C894.553833,1322.329224 894.617065,1290.074707 894.447327,1257.821533 
	C894.430420,1254.617188 896.482971,1250.440552 890.858643,1247.329956 
	C881.869263,1243.847046 872.819641,1240.509888 863.912903,1236.827148 
	C858.482056,1234.581543 853.232239,1234.310669 847.403687,1235.337158 
	C806.452332,1242.549194 765.433228,1249.375244 724.467590,1256.507812 
	C710.090393,1259.011108 695.802612,1262.028076 680.183777,1264.621216 
	C676.951538,1266.742920 673.316956,1268.438354 670.548462,1271.051392 
	C637.922607,1301.844238 605.423645,1332.771729 572.897339,1363.670044 
	C556.273010,1379.462280 539.627258,1395.232300 523.079651,1411.104492 
	C520.602051,1413.480957 516.663391,1415.340942 517.887939,1421.856445 
M1225.200439,1382.218384 
	C1195.982178,1390.083618 1175.991089,1407.814819 1166.836548,1437.012573 
	C1162.881836,1449.626099 1162.442383,1462.659546 1163.820679,1475.624268 
	C1167.112793,1506.591919 1182.472656,1529.462524 1211.364624,1541.922607 
	C1234.917969,1552.080322 1259.273926,1552.503418 1283.586060,1544.425049 
	C1310.232544,1535.570923 1327.226074,1517.242432 1335.132812,1490.402954 
	C1338.869385,1477.718872 1339.407471,1464.634888 1337.630859,1451.747437 
	C1332.921997,1417.588013 1314.417236,1394.319214 1281.151245,1383.753540 
	C1263.283813,1378.078491 1245.077515,1378.286133 1225.200439,1382.218384 
M1609.325439,1379.603882 
	C1605.664917,1379.728760 1601.968750,1379.569092 1598.349487,1380.022949 
	C1565.763916,1384.109009 1541.571045,1399.778442 1528.890991,1430.972656 
	C1523.374634,1444.543213 1522.714478,1458.812744 1523.583618,1473.219116 
	C1525.732666,1508.838745 1548.474976,1537.251099 1583.153687,1545.988892 
	C1615.393799,1554.112427 1646.540649,1549.257080 1676.434692,1535.285156 
	C1677.258179,1534.900513 1677.792603,1533.897339 1678.259277,1533.398804 
	C1678.259277,1505.546387 1678.259277,1478.002930 1678.259277,1450.264526 
	C1657.095947,1450.264526 1636.343750,1450.264526 1615.778564,1450.264526 
	C1615.778564,1461.167725 1615.778564,1471.393188 1615.778564,1482.608521 
	C1625.303711,1482.608521 1634.421631,1482.608521 1643.686523,1482.608521 
	C1643.686523,1491.845459 1643.686523,1500.072754 1643.686523,1509.157227 
	C1637.276001,1511.205933 1631.140137,1513.976074 1624.717285,1515.085938 
	C1587.231812,1521.563599 1563.566284,1501.137573 1560.745239,1469.635864 
	C1558.900635,1449.036865 1567.295898,1423.473511 1593.869751,1415.448975 
	C1612.335938,1409.873047 1630.080078,1411.601318 1645.786255,1424.114868 
	C1647.274902,1425.300659 1648.942261,1426.261841 1650.809814,1427.517578 
	C1659.147461,1418.412842 1667.162231,1409.660889 1675.411499,1400.652710 
	C1668.529053,1393.358765 1660.776978,1389.033691 1652.319214,1385.902344 
	C1639.034668,1380.983887 1625.229248,1379.241577 1609.325439,1379.603882 
M1147.843018,1463.101196 
	C1146.956055,1455.846069 1146.843750,1448.392578 1145.046875,1441.370361 
	C1137.644653,1412.443237 1118.160645,1395.507080 1089.940430,1388.028809 
	C1059.788818,1380.038696 1029.034180,1385.044189 998.254456,1383.389893 
	C998.254456,1437.768677 998.254456,1491.242798 998.254456,1545.297729 
	C1001.600525,1545.450439 1004.522583,1545.751831 1007.437012,1545.690308 
	C1030.048462,1545.213623 1052.863159,1546.399292 1075.223389,1543.757568 
	C1113.925049,1539.185425 1147.691040,1511.603149 1147.843018,1463.101196 
M1498.662842,1391.929810 
	C1498.662842,1389.376099 1498.662842,1386.822388 1498.662842,1384.110107 
	C1486.140503,1384.110107 1474.623535,1384.110107 1462.541260,1384.110107 
	C1462.541260,1390.921997 1462.547729,1397.222046 1462.540161,1403.521973 
	C1462.507446,1430.494385 1462.873535,1457.475342 1462.297241,1484.436157 
	C1461.896851,1503.165894 1448.399414,1516.011597 1430.620117,1516.108521 
	C1412.812012,1516.205566 1399.581787,1503.603027 1398.110596,1485.015503 
	C1397.822144,1481.371216 1397.880005,1477.695068 1397.877686,1474.033569 
	C1397.860840,1447.393555 1397.869751,1420.753662 1397.870361,1394.113647 
	C1397.870483,1390.856689 1397.870239,1387.599609 1397.870239,1384.041260 
	C1385.537598,1384.041260 1374.020874,1384.041260 1362.675781,1384.041260 
	C1362.279419,1385.080688 1361.857056,1385.671509 1361.857300,1386.262085 
	C1361.871338,1420.225952 1361.405762,1454.200684 1362.120483,1488.150391 
	C1362.751221,1518.124878 1380.289917,1540.174683 1408.372192,1546.981934 
	C1417.300415,1549.146118 1426.860107,1549.842896 1436.068726,1549.506348 
	C1468.497437,1548.321289 1491.350830,1529.472046 1497.281372,1499.540283 
	C1498.435425,1493.715942 1498.576904,1487.625000 1498.602905,1481.654541 
	C1498.730713,1452.351074 1498.661743,1423.046753 1498.662842,1391.929810 
M1930.353149,1416.308228 
	C1925.619995,1405.411133 1920.886841,1394.514160 1916.288696,1383.927979 
	C1905.670044,1383.927979 1896.094238,1383.927979 1885.904907,1383.927979 
	C1862.729492,1437.537842 1839.579590,1491.088867 1816.103271,1545.394897 
	C1830.004395,1545.394897 1842.575684,1545.394897 1855.691895,1545.394897 
	C1860.296753,1534.244751 1864.944946,1522.989990 1869.376587,1512.259277 
	C1890.906982,1512.259277 1911.425049,1512.259277 1932.077271,1512.259277 
	C1936.859985,1523.644043 1941.471436,1534.621094 1945.954346,1545.292236 
	C1959.584595,1545.292236 1972.423340,1545.292236 1986.555176,1545.292236 
	C1967.796021,1502.207520 1949.396729,1459.949341 1930.353149,1416.308228 
M2323.943848,1448.907593 
	C2324.198486,1445.921143 2324.605713,1442.938599 2324.683594,1439.947510 
	C2325.296143,1416.469238 2313.750244,1399.412231 2291.323486,1392.405273 
	C2283.183594,1389.862061 2274.365234,1388.740723 2265.805664,1388.446411 
	C2248.497314,1387.851196 2231.153809,1388.264526 2213.824951,1388.262207 
	C2209.930420,1388.261719 2206.035889,1388.262207 2201.777344,1388.262207 
	C2201.777344,1441.143066 2201.777344,1493.009521 2201.777344,1545.065430 
	C2216.052002,1545.065430 2229.831055,1545.065430 2244.604492,1545.065430 
	C2244.604492,1526.218262 2244.604492,1508.038208 2244.604492,1489.138062 
	C2249.243408,1489.138062 2252.879150,1489.256592 2256.504639,1489.113647 
	C2264.153564,1488.812012 2271.904297,1489.050171 2279.423096,1487.863525 
	C2301.545166,1484.371460 2317.999023,1473.705933 2323.943848,1448.907593 
M2447.341309,1440.232056 
	C2457.236328,1440.232056 2467.131592,1440.232056 2477.687012,1440.232056 
	C2475.358887,1417.047485 2465.332520,1400.736572 2444.811279,1391.596802 
	C2433.290771,1386.465698 2421.092529,1385.435303 2408.660400,1385.783691 
	C2377.973145,1386.643433 2355.333496,1403.040283 2345.652832,1432.135498 
	C2337.391602,1456.964355 2337.941650,1482.025024 2346.214844,1506.678589 
	C2352.898926,1526.595825 2366.574951,1540.051025 2387.085205,1545.653442 
	C2401.092529,1549.479614 2415.405029,1549.605835 2429.638916,1546.834106 
	C2455.640869,1541.770996 2471.132080,1525.792603 2477.115967,1500.270508 
	C2477.599121,1498.210205 2477.373291,1495.983887 2477.482178,1493.729492 
	C2463.145264,1493.729492 2449.578613,1493.729492 2435.723877,1493.729492 
	C2434.795898,1496.510376 2434.067139,1499.029053 2433.123291,1501.464111 
	C2429.708252,1510.271851 2423.824951,1515.778809 2413.870117,1516.271240 
	C2403.824463,1516.768311 2396.379883,1512.886719 2391.922852,1503.844360 
	C2390.318359,1500.589600 2388.865723,1497.133545 2388.115723,1493.605347 
	C2384.401611,1476.131958 2384.287598,1458.557495 2388.140381,1441.117432 
	C2389.192627,1436.352783 2391.265625,1431.582642 2393.865723,1427.439697 
	C2399.036621,1419.199951 2407.178711,1416.854492 2416.460938,1418.136597 
	C2424.927490,1419.306274 2430.176025,1424.337891 2432.707764,1432.384644 
	C2433.481689,1434.845215 2434.314697,1437.286987 2435.283203,1440.232056 
	C2438.862061,1440.232056 2442.162842,1440.232056 2447.341309,1440.232056 
M1997.584229,1444.840210 
	C2000.082764,1454.443604 2006.207397,1461.457886 2014.520142,1466.155884 
	C2021.408447,1470.049072 2028.942505,1472.850220 2036.318726,1475.816040 
	C2044.935303,1479.280273 2053.831543,1482.074951 2062.339355,1485.774658 
	C2068.552979,1488.476562 2072.510010,1493.462158 2071.824707,1500.730957 
	C2071.145264,1507.941528 2066.260010,1511.907959 2059.908203,1514.038574 
	C2046.211060,1518.633179 2033.678711,1516.028931 2022.370239,1507.208496 
	C2020.137939,1505.467529 2018.061890,1503.526245 2015.656616,1501.455688 
	C2007.118530,1510.900269 1999.121216,1519.746460 1990.760742,1528.994507 
	C2001.795654,1539.790894 2014.469482,1545.719238 2028.906982,1548.226196 
	C2047.452881,1551.446289 2065.599365,1550.271606 2082.306152,1541.128052 
	C2101.983643,1530.358765 2109.480713,1512.766846 2107.858643,1490.918335 
	C2106.405029,1471.331787 2093.889160,1460.823486 2076.940430,1454.404053 
	C2069.805664,1451.701660 2062.256104,1450.107300 2055.066650,1447.531616 
	C2049.778809,1445.637451 2044.374390,1443.567993 2039.721802,1440.511108 
	C2031.204956,1434.915283 2031.265625,1423.774414 2039.583374,1417.920532 
	C2042.228027,1416.059204 2045.467285,1414.766724 2048.625000,1413.958862 
	C2061.521973,1410.659668 2072.863037,1414.234009 2083.620117,1423.072021 
	C2091.612061,1414.304077 2099.539307,1405.606934 2108.353516,1395.936768 
	C2102.253418,1392.213135 2097.496826,1388.484619 2092.128662,1386.181763 
	C2073.069092,1378.005737 2053.331543,1377.066895 2033.558838,1383.069214 
	C2005.739990,1391.514038 1992.164062,1414.331421 1997.584229,1444.840210 
M1782.990967,1512.298950 
	C1771.426147,1512.298950 1759.861328,1512.298950 1747.259766,1512.298950 
	C1747.259766,1468.960083 1747.259766,1426.587280 1747.259766,1384.202393 
	C1734.698120,1384.202393 1723.206421,1384.202393 1711.971191,1384.202393 
	C1711.971191,1438.291992 1711.971191,1491.765137 1711.971191,1545.183960 
	C1735.222656,1546.945068 1805.697754,1546.176392 1813.463623,1543.975098 
	C1813.463623,1538.848633 1813.484375,1533.554932 1813.457642,1528.261597 
	C1813.431396,1523.077881 1813.357056,1517.894531 1813.299561,1512.298340 
	C1802.935547,1512.298340 1793.959961,1512.298340 1782.990967,1512.298950 
M1575.265015,1660.706177 
	C1575.255737,1639.081909 1575.335693,1617.456909 1575.185425,1595.833618 
	C1575.137085,1588.889893 1574.584229,1588.725342 1565.803467,1590.898804 
	C1565.803467,1611.368286 1565.803467,1632.081177 1565.803467,1652.794067 
	C1562.442261,1650.177368 1560.822998,1647.111206 1559.484619,1643.927002 
	C1552.784180,1627.985229 1546.260254,1611.968506 1539.462036,1596.068848 
	C1535.973755,1587.910400 1535.522827,1587.895996 1525.503906,1590.684082 
	C1525.503906,1619.024048 1525.503906,1647.452759 1525.503906,1676.697510 
	C1528.651367,1676.434082 1531.058105,1676.232788 1534.296265,1675.961792 
	C1534.296265,1654.517700 1534.296265,1633.805542 1534.296265,1613.093506 
	C1534.986206,1612.902466 1535.676147,1612.711426 1536.366089,1612.520386 
	C1538.198853,1616.573853 1540.124512,1620.588257 1541.847534,1624.687866 
	C1548.031738,1639.402222 1554.104126,1654.163940 1560.304565,1668.871460 
	C1564.153687,1678.001587 1564.345215,1678.028809 1575.260254,1675.111328 
	C1575.260254,1671.118164 1575.260254,1666.860107 1575.265015,1660.706177 
M1410.716309,1676.756226 
	C1411.723145,1674.933960 1413.506104,1673.150024 1413.598267,1671.282715 
	C1413.943115,1664.304077 1413.698730,1657.297974 1413.745728,1650.302612 
	C1413.778442,1645.436401 1413.926514,1640.571045 1414.019287,1635.894531 
	C1425.179443,1635.894531 1434.988892,1635.894531 1445.619141,1635.894531 
	C1445.619141,1649.722534 1445.619141,1662.635010 1445.619141,1676.694580 
	C1449.484619,1676.522583 1452.442261,1676.390991 1455.235229,1676.266846 
	C1455.235229,1646.749146 1455.235229,1618.528931 1455.235229,1589.804688 
	C1452.008911,1589.804688 1449.290161,1589.804688 1445.187622,1589.804688 
	C1445.187622,1602.298340 1445.187622,1614.066162 1445.187622,1626.935547 
	C1434.057373,1626.452148 1424.291870,1628.224365 1413.451416,1625.553589 
	C1413.451416,1613.407349 1413.451416,1601.599121 1413.451416,1589.604492 
	C1409.743164,1589.604492 1407.209106,1589.604492 1403.594238,1589.604492 
	C1403.594238,1597.700195 1403.593018,1605.287720 1403.594482,1612.875244 
	C1403.598145,1631.863525 1403.647461,1650.852051 1403.571899,1669.840088 
	C1403.555908,1673.863281 1403.702271,1677.395874 1410.716309,1676.756226 
M1891.312134,1589.413208 
	C1876.620239,1584.317749 1864.493530,1587.661865 1858.223999,1600.862671 
	C1847.984741,1622.421631 1847.964600,1644.616089 1859.083862,1666.098145 
	C1862.721924,1673.126709 1868.856934,1677.726196 1877.164307,1678.745239 
	C1888.223022,1680.101685 1897.295044,1675.944092 1902.553467,1665.160889 
	C1912.916748,1643.908325 1913.100342,1622.186646 1902.570435,1600.904053 
	C1900.485352,1596.689941 1896.016602,1593.655151 1891.312134,1589.413208 
M1686.749634,1594.191040 
	C1672.270264,1582.552002 1655.394531,1584.713013 1647.414062,1600.846436 
	C1636.628296,1622.651123 1636.893311,1645.236206 1648.530640,1666.900024 
	C1653.325317,1675.825928 1661.740601,1679.662231 1672.015259,1678.877686 
	C1683.039062,1678.035889 1689.444702,1670.997803 1693.392212,1661.754883 
	C1700.735962,1644.559082 1700.839966,1626.766846 1695.290039,1609.090698 
	C1693.744751,1604.169189 1690.321045,1599.837402 1686.749634,1594.191040 
M1971.284058,1640.063965 
	C1973.282104,1647.747681 1974.200195,1655.934692 1977.498901,1663.012207 
	C1984.771118,1678.614136 2003.435425,1683.983032 2018.289673,1675.423584 
	C2020.567749,1674.110962 2023.329102,1671.193848 2023.415527,1668.925293 
	C2023.907104,1656.040039 2023.653687,1643.126587 2023.653687,1629.592285 
	C2016.177246,1629.592285 2009.678467,1629.592285 2003.213501,1629.592285 
	C2002.489990,1635.972656 2002.489990,1635.972656 2014.117432,1638.287598 
	C2014.117432,1646.653564 2014.204468,1655.240967 2014.079468,1663.825317 
	C2014.020020,1667.906494 2011.054688,1669.377441 2007.574097,1670.220093 
	C1998.245972,1672.478882 1989.397339,1667.855347 1985.507324,1657.535645 
	C1979.412109,1641.366577 1979.371582,1624.805176 1985.498047,1608.679810 
	C1991.097046,1593.942871 2002.158447,1591.497925 2014.366699,1601.492065 
	C2015.066650,1602.065063 2016.120972,1602.205444 2017.581421,1602.766602 
	C2019.042114,1600.750610 2020.483887,1598.760986 2021.899902,1596.806763 
	C2017.704102,1590.484497 2012.100098,1587.963745 2005.576538,1587.165649 
	C1993.266846,1585.659912 1983.269287,1591.312134 1977.286499,1603.270996 
	C1971.763062,1614.312012 1970.650879,1626.177612 1971.284058,1640.063965 
M1214.640137,1634.956299 
	C1218.895386,1634.956299 1223.150757,1634.956299 1228.134277,1634.956299 
	C1227.904785,1631.759888 1227.757568,1629.710693 1227.526611,1626.494629 
	C1219.402222,1626.494629 1211.937622,1626.494629 1204.307739,1626.494629 
	C1204.307739,1616.145996 1204.307739,1607.030762 1204.307739,1596.975830 
	C1212.987793,1596.975830 1220.877563,1596.975830 1228.569336,1596.975830 
	C1230.774170,1591.628662 1229.892212,1589.012939 1224.551270,1589.020020 
	C1218.223022,1589.028442 1211.893677,1588.908447 1205.566895,1588.998779 
	C1201.748047,1589.053223 1197.933105,1589.401611 1193.595215,1589.647461 
	C1193.815918,1619.335693 1193.149902,1647.797485 1194.004395,1676.788452 
	C1206.966431,1676.887085 1218.767944,1677.350952 1231.216553,1676.525879 
	C1230.854858,1673.491943 1230.635864,1671.654175 1230.274902,1668.625488 
	C1221.464478,1668.625488 1212.990845,1668.625488 1204.247803,1668.625488 
	C1204.247803,1656.911743 1204.247803,1646.457764 1204.247803,1635.635742 
	C1207.561035,1635.375000 1210.165283,1635.170166 1214.640137,1634.956299 
M2183.166748,1668.766602 
	C2182.049072,1667.727417 2179.987305,1666.712158 2179.960693,1665.645508 
	C2179.711670,1655.776367 2179.813721,1645.898560 2179.813721,1634.941650 
	C2188.452148,1634.941650 2195.969971,1634.941650 2204.202637,1634.941650 
	C2203.920410,1631.711060 2203.741455,1629.660645 2203.461182,1626.451416 
	C2195.347168,1626.451416 2187.891357,1626.451416 2180.325195,1626.451416 
	C2180.325195,1616.090698 2180.325195,1606.979736 2180.325195,1596.943481 
	C2189.028564,1596.943481 2196.920654,1596.943481 2204.709961,1596.943481 
	C2205.385010,1589.482910 2205.393311,1589.265869 2200.501465,1589.079346 
	C2194.183105,1588.838379 2187.848633,1588.906494 2181.523682,1588.999390 
	C2177.709473,1589.055420 2173.899658,1589.411377 2169.631104,1589.659058 
	C2169.785645,1619.359375 2169.172119,1647.813232 2169.987549,1676.789551 
	C2182.981201,1676.878418 2194.779297,1677.370239 2207.223389,1676.506348 
	C2206.856201,1673.479492 2206.633545,1671.644409 2206.302002,1668.912354 
	C2198.981689,1668.912354 2192.045166,1668.912354 2183.166748,1668.766602 
M2271.285889,1623.298950 
	C2274.424805,1630.050659 2280.494629,1633.475830 2286.517822,1637.113525 
	C2290.449219,1639.487793 2294.468994,1642.099121 2297.530518,1645.444702 
	C2302.805664,1651.209473 2302.361328,1660.751953 2297.317627,1666.500977 
	C2292.861572,1671.580688 2285.317627,1672.128418 2278.218750,1667.792114 
	C2276.813477,1666.933838 2275.648193,1665.691040 2274.288086,1664.746582 
	C2273.512939,1664.208252 2272.567383,1663.915161 2271.186768,1663.273926 
	C2269.647461,1665.285156 2268.149414,1667.242065 2266.018555,1670.026001 
	C2268.046143,1671.575317 2269.573975,1672.833130 2271.190918,1673.963867 
	C2284.058594,1682.962646 2300.978760,1679.928223 2307.661133,1667.445435 
	C2314.124512,1655.371704 2310.826416,1640.843628 2299.655029,1632.876953 
	C2296.691895,1630.763916 2293.298584,1629.259155 2290.297363,1627.192505 
	C2287.311768,1625.136353 2284.152100,1623.088867 2281.809082,1620.393921 
	C2276.862305,1614.703613 2277.366211,1604.648682 2282.377930,1599.287231 
	C2286.954346,1594.391357 2293.580322,1593.920288 2300.550293,1598.047241 
	C2301.931885,1598.865112 2303.215820,1599.848022 2305.040771,1601.093262 
	C2306.830811,1598.880371 2308.390625,1596.951904 2310.256836,1594.644775 
	C2302.152588,1586.406006 2292.929932,1585.417847 2283.225830,1588.400024 
	C2274.219238,1591.168091 2268.962891,1599.541382 2268.975098,1610.179932 
	C2268.979492,1614.095581 2270.018311,1618.010010 2271.285889,1623.298950 
M1340.586060,1664.344971 
	C1337.958740,1661.108276 1336.043335,1662.315552 1333.329834,1664.753296 
	C1322.992310,1674.039673 1312.693726,1672.451416 1306.903198,1659.829590 
	C1298.732056,1642.018555 1298.702759,1623.556519 1306.983643,1605.711914 
	C1312.298828,1594.257935 1321.814697,1592.344604 1332.504883,1599.463135 
	C1333.865234,1600.369019 1335.187500,1601.332397 1337.095459,1602.666382 
	C1338.836304,1600.616821 1340.406372,1598.768311 1341.769409,1597.163574 
	C1341.082275,1595.812622 1340.912354,1595.094116 1340.466431,1594.657715 
	C1327.641846,1582.105225 1307.675659,1584.451050 1298.949341,1600.656006 
	C1287.639160,1621.658813 1288.150757,1643.462646 1298.541626,1664.870850 
	C1301.372803,1670.704102 1306.186035,1674.904419 1312.313843,1677.353027 
	C1324.657104,1682.285522 1337.579956,1677.018188 1340.586060,1664.344971 
M1101.767334,1588.968994 
	C1098.540894,1588.968994 1095.314331,1588.968994 1091.714111,1588.968994 
	C1091.714111,1592.074219 1091.714111,1593.938110 1091.714111,1596.255737 
	C1096.957153,1596.759399 1101.806641,1597.225342 1107.945679,1597.815063 
	C1107.945679,1624.160767 1107.945679,1650.196289 1107.945679,1676.144775 
	C1116.989380,1676.396362 1117.171143,1676.397217 1117.205933,1669.210327 
	C1117.303833,1648.942627 1117.212402,1628.674072 1117.261963,1608.406006 
	C1117.270508,1604.888916 1117.602539,1601.372681 1117.835327,1596.889038 
	C1122.243164,1596.889038 1125.588013,1597.292847 1128.763062,1596.733276 
	C1130.590210,1596.411255 1133.259033,1594.784302 1133.597534,1593.299805 
	C1134.432007,1589.640381 1131.260132,1589.198364 1128.503174,1589.033447 
	C1126.516235,1588.914429 1124.518188,1588.964600 1122.525146,1588.963379 
	C1116.212158,1588.959351 1109.899170,1588.966797 1101.767334,1588.968994 
M1774.385986,1617.014404 
	C1774.385986,1608.106812 1774.385986,1599.199219 1774.385986,1589.218750 
	C1770.648682,1589.514038 1767.999390,1589.723389 1765.549316,1589.917114 
	C1763.545044,1611.397461 1764.381592,1669.473633 1766.907227,1676.974976 
	C1770.955444,1676.974976 1775.246338,1676.996826 1779.536987,1676.969360 
	C1784.858887,1676.935425 1790.203003,1677.110474 1795.487061,1676.634033 
	C1796.862305,1676.509888 1799.046753,1674.299316 1799.047974,1673.045288 
	C1799.049316,1671.738403 1797.075928,1669.761841 1795.579590,1669.281372 
	C1793.455566,1668.599731 1790.978149,1668.987549 1788.651611,1668.974365 
	C1784.420288,1668.950317 1780.188599,1668.967529 1774.570190,1668.967529 
	C1774.505737,1651.442017 1774.446045,1635.226074 1774.385986,1617.014404 
M2100.375488,1660.871704 
	C2100.375488,1637.409302 2100.375488,1613.946777 2100.375488,1589.615112 
	C2096.624023,1589.980225 2094.261475,1590.210083 2091.959717,1590.434204 
	C2091.959717,1619.358887 2091.959717,1647.423584 2091.959717,1675.759155 
	C2093.840332,1676.020386 2095.121826,1676.426392 2096.350830,1676.304199 
	C2097.555664,1676.184326 2098.706787,1675.527466 2100.375732,1674.929077 
	C2100.375732,1670.732910 2100.375732,1666.785156 2100.375488,1660.871704 
z"/>
<path fill="#055A7B" opacity="1.000000" stroke="none" 
	d="
M892.611023,1500.497559 
	C888.462097,1537.999390 874.467407,1572.213989 857.103760,1605.185425 
	C825.408264,1665.371704 784.406311,1718.891846 738.736450,1769.013306 
	C735.999695,1772.016846 733.354980,1774.366943 728.638000,1774.180176 
	C706.708923,1773.311523 684.632080,1774.155518 662.849854,1771.973633 
	C595.206665,1765.197754 539.272400,1717.962646 519.929565,1652.528931 
	C518.632019,1648.139404 517.912476,1643.412476 517.894226,1638.838501 
	C517.770874,1607.878906 517.908936,1576.918091 518.637329,1545.674438 
	C519.548523,1556.932129 519.811340,1568.472778 520.007996,1580.014526 
	C520.086609,1584.624878 519.840637,1589.315796 524.219238,1591.476562 
	C529.812256,1589.468018 534.570740,1587.296021 539.562439,1586.085693 
	C545.590576,1584.624146 551.821838,1584.009766 557.955383,1582.970703 
	C567.639709,1581.330322 577.315918,1579.641479 587.145508,1578.866943 
	C587.495972,1585.169434 587.696411,1590.578125 587.678467,1596.904785 
	C587.615295,1610.546387 587.770447,1623.270264 587.723389,1636.899414 
	C586.320129,1654.645752 590.063965,1670.158813 600.068237,1684.702271 
	C605.368774,1693.537842 611.064026,1701.220581 619.730103,1707.133545 
	C637.951294,1722.910034 659.107788,1730.230347 682.696045,1733.938599 
	C697.451477,1735.451050 711.380310,1736.947510 725.347900,1737.833496 
	C728.181702,1738.013184 731.161682,1735.889404 734.724609,1734.556396 
	C745.586731,1723.451294 756.886230,1713.434814 765.776245,1701.607300 
	C782.498169,1679.359985 798.920227,1656.738770 813.496033,1633.059814 
	C838.487976,1592.459595 858.258301,1549.430542 867.485474,1501.999023 
	C872.070679,1501.072876 875.903015,1500.187866 879.690674,1499.141357 
	C884.200867,1497.895142 888.664795,1496.587036 892.611023,1500.497559 
z"/>
<path fill="#062F3E" opacity="1.000000" stroke="none" 
	d="
M1226.012695,1382.071899 
	C1245.077515,1378.286133 1263.283813,1378.078491 1281.151245,1383.753540 
	C1314.417236,1394.319214 1332.921997,1417.588013 1337.630859,1451.747437 
	C1339.407471,1464.634888 1338.869385,1477.718872 1335.132812,1490.402954 
	C1327.226074,1517.242432 1310.232544,1535.570923 1283.586060,1544.425049 
	C1259.273926,1552.503418 1234.917969,1552.080322 1211.364624,1541.922607 
	C1182.472656,1529.462524 1167.112793,1506.591919 1163.820679,1475.624268 
	C1162.442383,1462.659546 1162.881836,1449.626099 1166.836548,1437.012573 
	C1175.991089,1407.814819 1195.982178,1390.083618 1226.012695,1382.071899 
M1262.493774,1413.895386 
	C1259.862915,1413.491577 1257.245361,1412.916992 1254.599121,1412.710449 
	C1229.834717,1410.777466 1208.811523,1425.281006 1202.554321,1448.677979 
	C1199.838989,1458.831665 1199.784424,1469.053467 1202.249756,1479.305786 
	C1206.861938,1498.485840 1222.323853,1512.843994 1241.583130,1515.710205 
	C1263.465576,1518.967041 1283.048950,1510.529175 1293.438599,1493.484741 
	C1307.230225,1470.859619 1304.427734,1424.682251 1262.493774,1413.895386 
z"/>
<path fill="#062F3E" opacity="1.000000" stroke="none" 
	d="
M1610.222412,1379.604614 
	C1625.229248,1379.241577 1639.034668,1380.983887 1652.319214,1385.902344 
	C1660.776978,1389.033691 1668.529053,1393.358765 1675.411499,1400.652710 
	C1667.162231,1409.660889 1659.147461,1418.412842 1650.809814,1427.517578 
	C1648.942261,1426.261841 1647.274902,1425.300659 1645.786255,1424.114868 
	C1630.080078,1411.601318 1612.335938,1409.873047 1593.869751,1415.448975 
	C1567.295898,1423.473511 1558.900635,1449.036865 1560.745239,1469.635864 
	C1563.566284,1501.137573 1587.231812,1521.563599 1624.717285,1515.085938 
	C1631.140137,1513.976074 1637.276001,1511.205933 1643.686523,1509.157227 
	C1643.686523,1500.072754 1643.686523,1491.845459 1643.686523,1482.608521 
	C1634.421631,1482.608521 1625.303711,1482.608521 1615.778564,1482.608521 
	C1615.778564,1471.393188 1615.778564,1461.167725 1615.778564,1450.264526 
	C1636.343750,1450.264526 1657.095947,1450.264526 1678.259277,1450.264526 
	C1678.259277,1478.002930 1678.259277,1505.546387 1678.259277,1533.398804 
	C1677.792603,1533.897339 1677.258179,1534.900513 1676.434692,1535.285156 
	C1646.540649,1549.257080 1615.393799,1554.112427 1583.153687,1545.988892 
	C1548.474976,1537.251099 1525.732666,1508.838745 1523.583618,1473.219116 
	C1522.714478,1458.812744 1523.374634,1444.543213 1528.890991,1430.972656 
	C1541.571045,1399.778442 1565.763916,1384.109009 1598.349487,1380.022949 
	C1601.968750,1379.569092 1605.664917,1379.728760 1610.222412,1379.604614 
z"/>
<path fill="#062F3E" opacity="1.000000" stroke="none" 
	d="
M1147.847412,1464.044922 
	C1147.691040,1511.603149 1113.925049,1539.185425 1075.223389,1543.757568 
	C1052.863159,1546.399292 1030.048462,1545.213623 1007.437012,1545.690308 
	C1004.522583,1545.751831 1001.600525,1545.450439 998.254456,1545.297729 
	C998.254456,1491.242798 998.254456,1437.768677 998.254456,1383.389893 
	C1029.034180,1385.044189 1059.788818,1380.038696 1089.940430,1388.028809 
	C1118.160645,1395.507080 1137.644653,1412.443237 1145.046875,1441.370361 
	C1146.843750,1448.392578 1146.956055,1455.846069 1147.847412,1464.044922 
M1037.644409,1416.395996 
	C1031.574341,1417.133301 1033.989136,1421.911621 1033.967773,1424.973511 
	C1033.781250,1451.570312 1033.859863,1478.169189 1033.859741,1504.767334 
	C1033.859741,1506.993774 1033.859741,1509.220215 1033.859741,1512.135254 
	C1042.049805,1512.135254 1049.285156,1512.270752 1056.512085,1512.084106 
	C1060.814209,1511.972900 1065.166504,1511.695801 1069.388184,1510.911499 
	C1098.761230,1505.454712 1112.802612,1486.703979 1109.915894,1457.034790 
	C1107.983521,1437.174561 1092.748291,1421.776733 1070.304810,1418.295776 
	C1060.186401,1416.726318 1049.788696,1416.956787 1037.644409,1416.395996 
z"/>
<path fill="#04A7E4" opacity="1.000000" stroke="none" 
	d="
M681.473999,1264.810425 
	C695.802612,1262.028076 710.090393,1259.011108 724.467590,1256.507812 
	C765.433228,1249.375244 806.452332,1242.549194 847.403687,1235.337158 
	C853.232239,1234.310669 858.482056,1234.581543 863.912903,1236.827148 
	C872.819641,1240.509888 881.869263,1243.847046 891.422302,1248.744385 
	C891.989685,1261.439941 892.004150,1272.721313 891.994080,1284.002563 
	C891.983398,1295.947510 892.135925,1307.896729 891.867371,1319.836182 
	C891.648132,1329.585083 887.275757,1334.827393 879.195129,1335.958252 
	C870.164001,1337.222046 870.276733,1337.226196 869.945679,1346.314331 
	C869.658875,1354.186401 869.077576,1362.047729 868.432617,1369.007568 
	C868.228333,1341.164185 868.217834,1314.227051 868.206970,1286.391235 
	C864.403748,1287.340820 862.216553,1287.886963 859.378113,1288.419434 
	C857.883667,1288.598022 857.040527,1288.790283 855.520203,1288.765869 
	C852.570618,1289.163208 850.298218,1289.777466 847.220032,1290.391113 
	C810.463074,1296.304932 774.510315,1302.209106 738.563049,1308.146851 
	C734.346191,1308.843262 729.860107,1309.139282 727.025757,1314.047119 
	C712.235901,1327.943848 698.066589,1341.573853 683.804993,1355.106812 
	C680.711487,1358.042358 677.286621,1360.628662 673.719116,1363.150635 
	C672.962952,1363.347656 672.501953,1363.770020 672.032471,1364.110107 
	C672.023987,1364.028076 672.188904,1364.022705 671.692322,1364.227539 
	C670.803223,1365.014648 670.410767,1365.597046 670.016602,1366.097046 
	C670.014893,1366.014771 670.179382,1366.018188 669.684692,1366.225464 
	C668.799927,1367.015747 668.409729,1367.598755 668.017700,1368.098877 
	C668.015869,1368.016113 668.181396,1368.019409 667.687439,1368.225342 
	C666.799622,1369.009766 666.405701,1369.588379 666.010742,1370.088379 
	C666.009705,1370.009766 666.166992,1370.012207 665.675537,1370.220215 
	C664.792786,1371.006592 664.401550,1371.584839 664.009338,1372.084961 
	C664.008423,1372.006836 664.164856,1372.008057 663.668457,1372.233398 
	C662.814087,1373.073853 662.456116,1373.688843 662.094360,1374.187012 
	C662.090515,1374.070312 662.322571,1374.098022 661.793945,1374.282959 
	C660.873779,1375.081299 660.482239,1375.694702 660.082153,1376.191650 
	C660.073486,1376.075317 660.306335,1376.091309 659.780518,1376.277100 
	C658.865479,1377.074219 658.476196,1377.685791 658.077759,1378.186035 
	C658.068665,1378.074829 658.291382,1378.088623 657.773254,1378.266357 
	C656.851074,1379.031494 656.447021,1379.618896 656.110046,1380.141113 
	C656.177124,1380.076050 656.325012,1380.190552 655.471924,1380.110107 
	C651.103394,1380.439697 646.682800,1379.641479 644.234192,1381.475586 
	C635.241394,1388.212280 624.412231,1387.287476 614.449951,1389.805908 
	C609.899536,1390.956055 607.718323,1388.502319 608.224670,1383.337769 
	C631.887878,1360.122192 655.191833,1337.456177 678.558350,1314.854736 
	C682.124023,1311.405762 686.157715,1308.434204 689.659302,1304.926636 
	C695.436646,1299.139282 702.310974,1294.315308 706.556458,1286.931519 
	C703.500549,1280.831055 697.300720,1279.105591 692.859314,1275.324707 
	C688.928894,1271.979004 685.258911,1268.327148 681.473999,1264.810425 
z"/>
<path fill="#062F3E" opacity="1.000000" stroke="none" 
	d="
M1498.662598,1392.836304 
	C1498.661743,1423.046753 1498.730713,1452.351074 1498.602905,1481.654541 
	C1498.576904,1487.625000 1498.435425,1493.715942 1497.281372,1499.540283 
	C1491.350830,1529.472046 1468.497437,1548.321289 1436.068726,1549.506348 
	C1426.860107,1549.842896 1417.300415,1549.146118 1408.372192,1546.981934 
	C1380.289917,1540.174683 1362.751221,1518.124878 1362.120483,1488.150391 
	C1361.405762,1454.200684 1361.871338,1420.225952 1361.857300,1386.262085 
	C1361.857056,1385.671509 1362.279419,1385.080688 1362.675781,1384.041260 
	C1374.020874,1384.041260 1385.537598,1384.041260 1397.870239,1384.041260 
	C1397.870239,1387.599609 1397.870483,1390.856689 1397.870361,1394.113647 
	C1397.869751,1420.753662 1397.860840,1447.393555 1397.877686,1474.033569 
	C1397.880005,1477.695068 1397.822144,1481.371216 1398.110596,1485.015503 
	C1399.581787,1503.603027 1412.812012,1516.205566 1430.620117,1516.108521 
	C1448.399414,1516.011597 1461.896851,1503.165894 1462.297241,1484.436157 
	C1462.873535,1457.475342 1462.507446,1430.494385 1462.540161,1403.521973 
	C1462.547729,1397.222046 1462.541260,1390.921997 1462.541260,1384.110107 
	C1474.623535,1384.110107 1486.140503,1384.110107 1498.662842,1384.110107 
	C1498.662842,1386.822388 1498.662842,1389.376099 1498.662598,1392.836304 
z"/>
<path fill="#062F3E" opacity="1.000000" stroke="none" 
	d="
M1930.675293,1416.999634 
	C1949.396729,1459.949341 1967.796021,1502.207520 1986.555176,1545.292236 
	C1972.423340,1545.292236 1959.584595,1545.292236 1945.954346,1545.292236 
	C1941.471436,1534.621094 1936.859985,1523.644043 1932.077271,1512.259277 
	C1911.425049,1512.259277 1890.906982,1512.259277 1869.376587,1512.259277 
	C1864.944946,1522.989990 1860.296753,1534.244751 1855.691895,1545.394897 
	C1842.575684,1545.394897 1830.004395,1545.394897 1816.103271,1545.394897 
	C1839.579590,1491.088867 1862.729492,1437.537842 1885.904907,1383.927979 
	C1896.094238,1383.927979 1905.670044,1383.927979 1916.288696,1383.927979 
	C1920.886841,1394.514160 1925.619995,1405.411133 1930.675293,1416.999634 
M1902.162964,1437.071289 
	C1901.639526,1436.106201 1901.116089,1435.141113 1899.683960,1432.500732 
	C1893.318604,1449.885864 1886.315186,1464.932861 1881.302124,1481.356934 
	C1894.570557,1481.356934 1906.461426,1481.356934 1919.677612,1481.356934 
	C1913.839600,1466.607788 1908.267090,1452.529175 1902.162964,1437.071289 
z"/>
<path fill="#0386B9" opacity="1.000000" stroke="none" 
	d="
M607.885864,1383.908447 
	C607.718323,1388.502319 609.899536,1390.956055 614.449951,1389.805908 
	C624.412231,1387.287476 635.241394,1388.212280 644.234192,1381.475586 
	C646.682800,1379.641479 651.103394,1380.439697 655.244019,1380.752319 
	C633.301453,1403.081055 610.733765,1424.687134 587.825562,1446.294434 
	C587.305664,1446.429321 586.956543,1446.600586 586.976440,1446.689941 
	C587.062439,1447.076782 587.256348,1447.439575 587.438354,1448.759277 
	C587.603333,1468.488770 587.740967,1487.270020 587.659729,1506.773682 
	C587.592957,1508.981567 587.744995,1510.467285 587.762695,1512.787598 
	C587.731934,1516.435059 587.835449,1519.247925 587.714111,1522.972168 
	C587.324707,1541.913330 587.160156,1559.943237 586.995544,1577.973145 
	C577.315918,1579.641479 567.639709,1581.330322 557.955383,1582.970703 
	C551.821838,1584.009766 545.590576,1584.624146 539.562439,1586.085693 
	C534.570740,1587.296021 529.812256,1589.468018 524.219238,1591.476562 
	C519.840637,1589.315796 520.086609,1584.624878 520.007996,1580.014526 
	C519.811340,1568.472778 519.548523,1556.932129 518.798645,1544.757202 
	C518.096130,1540.828247 517.741943,1537.532959 517.743408,1534.238037 
	C517.760193,1496.777466 517.831299,1459.317017 518.723267,1421.205322 
	C526.081055,1425.065308 532.728394,1429.408203 539.091736,1434.133545 
	C545.752502,1439.079712 547.606018,1439.215698 553.500732,1433.543945 
	C558.296692,1428.929077 562.790771,1423.987793 567.730896,1419.538086 
	C581.026550,1407.562378 594.489380,1395.772217 607.885864,1383.908447 
z"/>
<path fill="#055A7B" opacity="1.000000" stroke="none" 
	d="
M2323.821533,1449.716309 
	C2317.999023,1473.705933 2301.545166,1484.371460 2279.423096,1487.863525 
	C2271.904297,1489.050171 2264.153564,1488.812012 2256.504639,1489.113647 
	C2252.879150,1489.256592 2249.243408,1489.138062 2244.604492,1489.138062 
	C2244.604492,1508.038208 2244.604492,1526.218262 2244.604492,1545.065430 
	C2229.831055,1545.065430 2216.052002,1545.065430 2201.777344,1545.065430 
	C2201.777344,1493.009521 2201.777344,1441.143066 2201.777344,1388.262207 
	C2206.035889,1388.262207 2209.930420,1388.261719 2213.824951,1388.262207 
	C2231.153809,1388.264526 2248.497314,1387.851196 2265.805664,1388.446411 
	C2274.365234,1388.740723 2283.183594,1389.862061 2291.323486,1392.405273 
	C2313.750244,1399.412231 2325.296143,1416.469238 2324.683594,1439.947510 
	C2324.605713,1442.938599 2324.198486,1445.921143 2323.821533,1449.716309 
M2244.213867,1442.843018 
	C2244.283691,1447.668457 2244.353516,1452.493774 2244.437500,1458.296509 
	C2253.445801,1457.630005 2261.155029,1457.848633 2268.498047,1456.313232 
	C2277.320312,1454.468384 2281.666992,1447.163818 2281.321777,1437.525146 
	C2280.985596,1428.129639 2275.767334,1421.497803 2266.447266,1420.417847 
	C2259.375732,1419.598389 2252.133301,1420.255493 2244.212891,1420.255493 
	C2244.212891,1427.754395 2244.212891,1434.334473 2244.213867,1442.843018 
z"/>
<path fill="#055A7B" opacity="1.000000" stroke="none" 
	d="
M2446.402344,1440.232056 
	C2442.162842,1440.232056 2438.862061,1440.232056 2435.283203,1440.232056 
	C2434.314697,1437.286987 2433.481689,1434.845215 2432.707764,1432.384644 
	C2430.176025,1424.337891 2424.927490,1419.306274 2416.460938,1418.136597 
	C2407.178711,1416.854492 2399.036621,1419.199951 2393.865723,1427.439697 
	C2391.265625,1431.582642 2389.192627,1436.352783 2388.140381,1441.117432 
	C2384.287598,1458.557495 2384.401611,1476.131958 2388.115723,1493.605347 
	C2388.865723,1497.133545 2390.318359,1500.589600 2391.922852,1503.844360 
	C2396.379883,1512.886719 2403.824463,1516.768311 2413.870117,1516.271240 
	C2423.824951,1515.778809 2429.708252,1510.271851 2433.123291,1501.464111 
	C2434.067139,1499.029053 2434.795898,1496.510376 2435.723877,1493.729492 
	C2449.578613,1493.729492 2463.145264,1493.729492 2477.482178,1493.729492 
	C2477.373291,1495.983887 2477.599121,1498.210205 2477.115967,1500.270508 
	C2471.132080,1525.792603 2455.640869,1541.770996 2429.638916,1546.834106 
	C2415.405029,1549.605835 2401.092529,1549.479614 2387.085205,1545.653442 
	C2366.574951,1540.051025 2352.898926,1526.595825 2346.214844,1506.678589 
	C2337.941650,1482.025024 2337.391602,1456.964355 2345.652832,1432.135498 
	C2355.333496,1403.040283 2377.973145,1386.643433 2408.660400,1385.783691 
	C2421.092529,1385.435303 2433.290771,1386.465698 2444.811279,1391.596802 
	C2465.332520,1400.736572 2475.358887,1417.047485 2477.687012,1440.232056 
	C2467.131592,1440.232056 2457.236328,1440.232056 2446.402344,1440.232056 
z"/>
<path fill="#062F3E" opacity="1.000000" stroke="none" 
	d="
M1997.364990,1444.030273 
	C1992.164062,1414.331421 2005.739990,1391.514038 2033.558838,1383.069214 
	C2053.331543,1377.066895 2073.069092,1378.005737 2092.128662,1386.181763 
	C2097.496826,1388.484619 2102.253418,1392.213135 2108.353516,1395.936768 
	C2099.539307,1405.606934 2091.612061,1414.304077 2083.620117,1423.072021 
	C2072.863037,1414.234009 2061.521973,1410.659668 2048.625000,1413.958862 
	C2045.467285,1414.766724 2042.228027,1416.059204 2039.583374,1417.920532 
	C2031.265625,1423.774414 2031.204956,1434.915283 2039.721802,1440.511108 
	C2044.374390,1443.567993 2049.778809,1445.637451 2055.066650,1447.531616 
	C2062.256104,1450.107300 2069.805664,1451.701660 2076.940430,1454.404053 
	C2093.889160,1460.823486 2106.405029,1471.331787 2107.858643,1490.918335 
	C2109.480713,1512.766846 2101.983643,1530.358765 2082.306152,1541.128052 
	C2065.599365,1550.271606 2047.452881,1551.446289 2028.906982,1548.226196 
	C2014.469482,1545.719238 2001.795654,1539.790894 1990.760742,1528.994507 
	C1999.121216,1519.746460 2007.118530,1510.900269 2015.656616,1501.455688 
	C2018.061890,1503.526245 2020.137939,1505.467529 2022.370239,1507.208496 
	C2033.678711,1516.028931 2046.211060,1518.633179 2059.908203,1514.038574 
	C2066.260010,1511.907959 2071.145264,1507.941528 2071.824707,1500.730957 
	C2072.510010,1493.462158 2068.552979,1488.476562 2062.339355,1485.774658 
	C2053.831543,1482.074951 2044.935303,1479.280273 2036.318726,1475.816040 
	C2028.942505,1472.850220 2021.408447,1470.049072 2014.520142,1466.155884 
	C2006.207397,1461.457886 2000.082764,1454.443604 1997.364990,1444.030273 
z"/>
<path fill="#062F3E" opacity="1.000000" stroke="none" 
	d="
M1783.987671,1512.298584 
	C1793.959961,1512.298340 1802.935547,1512.298340 1813.299561,1512.298340 
	C1813.357056,1517.894531 1813.431396,1523.077881 1813.457642,1528.261597 
	C1813.484375,1533.554932 1813.463623,1538.848633 1813.463623,1543.975098 
	C1805.697754,1546.176392 1735.222656,1546.945068 1711.971191,1545.183960 
	C1711.971191,1491.765137 1711.971191,1438.291992 1711.971191,1384.202393 
	C1723.206421,1384.202393 1734.698120,1384.202393 1747.259766,1384.202393 
	C1747.259766,1426.587280 1747.259766,1468.960083 1747.259766,1512.298950 
	C1759.861328,1512.298950 1771.426147,1512.298950 1783.987671,1512.298584 
z"/>
<path fill="#055A7B" opacity="1.000000" stroke="none" 
	d="
M608.224609,1383.337769 
	C594.489380,1395.772217 581.026550,1407.562378 567.730896,1419.538086 
	C562.790771,1423.987793 558.296692,1428.929077 553.500732,1433.543945 
	C547.606018,1439.215698 545.752502,1439.079712 539.091736,1434.133545 
	C532.728394,1429.408203 526.081055,1425.065308 518.944092,1420.292969 
	C516.663391,1415.340942 520.602051,1413.480957 523.079651,1411.104492 
	C539.627258,1395.232300 556.273010,1379.462280 572.897339,1363.670044 
	C605.423645,1332.771729 637.922607,1301.844238 670.548462,1271.051392 
	C673.316956,1268.438354 676.951538,1266.742920 680.828857,1264.715820 
	C685.258911,1268.327148 688.928894,1271.979004 692.859314,1275.324707 
	C697.300720,1279.105591 703.500549,1280.831055 706.556458,1286.931519 
	C702.310974,1294.315308 695.436646,1299.139282 689.659302,1304.926636 
	C686.157715,1308.434204 682.124023,1311.405762 678.558350,1314.854736 
	C655.191833,1337.456177 631.887878,1360.122192 608.224609,1383.337769 
z"/>
<path fill="#0386B9" opacity="1.000000" stroke="none" 
	d="
M868.626404,1369.913818 
	C869.077576,1362.047729 869.658875,1354.186401 869.945679,1346.314331 
	C870.276733,1337.226196 870.164001,1337.222046 879.195129,1335.958252 
	C887.275757,1334.827393 891.648132,1329.585083 891.867371,1319.836182 
	C892.135925,1307.896729 891.983398,1295.947510 891.994080,1284.002563 
	C892.004150,1272.721313 891.989685,1261.439941 891.924805,1249.244385 
	C896.482971,1250.440552 894.430420,1254.617188 894.447327,1257.821533 
	C894.617065,1290.074707 894.553833,1322.329224 894.564453,1354.583252 
	C894.577881,1395.150269 894.658325,1435.717407 894.564392,1476.284180 
	C894.546753,1483.915161 893.846619,1491.544434 893.036194,1499.836060 
	C888.664795,1496.587036 884.200867,1497.895142 879.690674,1499.141357 
	C875.903015,1500.187866 872.070679,1501.072876 867.236572,1502.020996 
	C866.215088,1502.012695 865.719299,1502.074585 865.835693,1501.220581 
	C868.867676,1482.802734 868.700989,1465.162109 867.411255,1446.766357 
	C872.491089,1436.526367 877.426270,1427.009888 882.521606,1417.184570 
	C877.443054,1413.435669 872.520813,1409.802002 867.790649,1405.267090 
	C867.948853,1398.229980 867.915100,1392.094360 867.971436,1385.217041 
	C868.026611,1382.983643 867.991699,1381.491943 868.097046,1379.340210 
	C868.157349,1377.788452 868.077332,1376.896606 868.079468,1375.244873 
	C868.316589,1372.961182 868.471497,1371.437500 868.626404,1369.913818 
z"/>
<path fill="#24AFE0" opacity="1.000000" stroke="none" 
	d="
M1575.262695,1661.654053 
	C1575.260254,1666.860107 1575.260254,1671.118164 1575.260254,1675.111328 
	C1564.345215,1678.028809 1564.153687,1678.001587 1560.304565,1668.871460 
	C1554.104126,1654.163940 1548.031738,1639.402222 1541.847534,1624.687866 
	C1540.124512,1620.588257 1538.198853,1616.573853 1536.366089,1612.520386 
	C1535.676147,1612.711426 1534.986206,1612.902466 1534.296265,1613.093506 
	C1534.296265,1633.805542 1534.296265,1654.517700 1534.296265,1675.961792 
	C1531.058105,1676.232788 1528.651367,1676.434082 1525.503906,1676.697510 
	C1525.503906,1647.452759 1525.503906,1619.024048 1525.503906,1590.684082 
	C1535.522827,1587.895996 1535.973755,1587.910400 1539.462036,1596.068848 
	C1546.260254,1611.968506 1552.784180,1627.985229 1559.484619,1643.927002 
	C1560.822998,1647.111206 1562.442261,1650.177368 1565.803467,1652.794067 
	C1565.803467,1632.081177 1565.803467,1611.368286 1565.803467,1590.898804 
	C1574.584229,1588.725342 1575.137085,1588.889893 1575.185425,1595.833618 
	C1575.335693,1617.456909 1575.255737,1639.081909 1575.262695,1661.654053 
z"/>
<path fill="#24AFE0" opacity="1.000000" stroke="none" 
	d="
M1409.947998,1676.812744 
	C1403.702271,1677.395874 1403.555908,1673.863281 1403.571899,1669.840088 
	C1403.647461,1650.852051 1403.598145,1631.863525 1403.594482,1612.875244 
	C1403.593018,1605.287720 1403.594238,1597.700195 1403.594238,1589.604492 
	C1407.209106,1589.604492 1409.743164,1589.604492 1413.451416,1589.604492 
	C1413.451416,1601.599121 1413.451416,1613.407349 1413.451416,1625.553589 
	C1424.291870,1628.224365 1434.057373,1626.452148 1445.187622,1626.935547 
	C1445.187622,1614.066162 1445.187622,1602.298340 1445.187622,1589.804688 
	C1449.290161,1589.804688 1452.008911,1589.804688 1455.235229,1589.804688 
	C1455.235229,1618.528931 1455.235229,1646.749146 1455.235229,1676.266846 
	C1452.442261,1676.390991 1449.484619,1676.522583 1445.619141,1676.694580 
	C1445.619141,1662.635010 1445.619141,1649.722534 1445.619141,1635.894531 
	C1434.988892,1635.894531 1425.179443,1635.894531 1414.019287,1635.894531 
	C1413.926514,1640.571045 1413.778442,1645.436401 1413.745728,1650.302612 
	C1413.698730,1657.297974 1413.943115,1664.304077 1413.598267,1671.282715 
	C1413.506104,1673.150024 1411.723145,1674.933960 1409.947998,1676.812744 
z"/>
<path fill="#24AFE0" opacity="1.000000" stroke="none" 
	d="
M1891.979614,1589.744873 
	C1896.016602,1593.655151 1900.485352,1596.689941 1902.570435,1600.904053 
	C1913.100342,1622.186646 1912.916748,1643.908325 1902.553467,1665.160889 
	C1897.295044,1675.944092 1888.223022,1680.101685 1877.164307,1678.745239 
	C1868.856934,1677.726196 1862.721924,1673.126709 1859.083862,1666.098145 
	C1847.964600,1644.616089 1847.984741,1622.421631 1858.223999,1600.862671 
	C1864.493530,1587.661865 1876.620239,1584.317749 1891.979614,1589.744873 
M1899.477417,1643.793213 
	C1898.875366,1633.549805 1899.149170,1623.157471 1897.438965,1613.102539 
	C1895.508667,1601.752686 1888.012573,1594.816406 1880.392822,1594.889771 
	C1873.060547,1594.960327 1866.577271,1601.370850 1863.754517,1612.441284 
	C1860.070312,1626.889526 1860.404053,1641.435303 1864.438477,1655.808594 
	C1865.144897,1658.325439 1866.404907,1660.779175 1867.836548,1662.984497 
	C1874.793091,1673.700317 1887.352417,1673.631226 1893.506714,1662.412842 
	C1896.321533,1657.281860 1897.354492,1651.173218 1899.477417,1643.793213 
z"/>
<path fill="#24AFE0" opacity="1.000000" stroke="none" 
	d="
M1687.254395,1594.713135 
	C1690.321045,1599.837402 1693.744751,1604.169189 1695.290039,1609.090698 
	C1700.839966,1626.766846 1700.735962,1644.559082 1693.392212,1661.754883 
	C1689.444702,1670.997803 1683.039062,1678.035889 1672.015259,1678.877686 
	C1661.740601,1679.662231 1653.325317,1675.825928 1648.530640,1666.900024 
	C1636.893311,1645.236206 1636.628296,1622.651123 1647.414062,1600.846436 
	C1655.394531,1584.713013 1672.270264,1582.552002 1687.254395,1594.713135 
M1685.098755,1657.590210 
	C1686.475952,1649.748291 1688.786499,1641.931519 1688.998779,1634.058228 
	C1689.275391,1623.789917 1688.402710,1613.320679 1682.915039,1604.096802 
	C1675.629883,1591.851440 1662.423584,1591.492798 1656.304565,1604.131958 
	C1647.100708,1623.143433 1647.758789,1642.770508 1656.252075,1662.082397 
	C1656.906006,1663.569214 1658.023926,1664.918579 1659.152832,1666.118530 
	C1664.811768,1672.134644 1673.886719,1672.422729 1679.584473,1666.506226 
	C1681.605225,1664.407593 1682.826294,1661.538696 1685.098755,1657.590210 
z"/>
<path fill="#24AFE0" opacity="1.000000" stroke="none" 
	d="
M1971.233154,1639.183350 
	C1970.650879,1626.177612 1971.763062,1614.312012 1977.286499,1603.270996 
	C1983.269287,1591.312134 1993.266846,1585.659912 2005.576538,1587.165649 
	C2012.100098,1587.963745 2017.704102,1590.484497 2021.899902,1596.806763 
	C2020.483887,1598.760986 2019.042114,1600.750610 2017.581421,1602.766602 
	C2016.120972,1602.205444 2015.066650,1602.065063 2014.366699,1601.492065 
	C2002.158447,1591.497925 1991.097046,1593.942871 1985.498047,1608.679810 
	C1979.371582,1624.805176 1979.412109,1641.366577 1985.507324,1657.535645 
	C1989.397339,1667.855347 1998.245972,1672.478882 2007.574097,1670.220093 
	C2011.054688,1669.377441 2014.020020,1667.906494 2014.079468,1663.825317 
	C2014.204468,1655.240967 2014.117432,1646.653564 2014.117432,1638.287598 
	C2002.489990,1635.972656 2002.489990,1635.972656 2003.213501,1629.592285 
	C2009.678467,1629.592285 2016.177246,1629.592285 2023.653687,1629.592285 
	C2023.653687,1643.126587 2023.907104,1656.040039 2023.415527,1668.925293 
	C2023.329102,1671.193848 2020.567749,1674.110962 2018.289673,1675.423584 
	C2003.435425,1683.983032 1984.771118,1678.614136 1977.498901,1663.012207 
	C1974.200195,1655.934692 1973.282104,1647.747681 1971.233154,1639.183350 
z"/>
<path fill="#24AFE0" opacity="1.000000" stroke="none" 
	d="
M1213.704834,1634.960693 
	C1210.165283,1635.170166 1207.561035,1635.375000 1204.247803,1635.635742 
	C1204.247803,1646.457764 1204.247803,1656.911743 1204.247803,1668.625488 
	C1212.990845,1668.625488 1221.464478,1668.625488 1230.274902,1668.625488 
	C1230.635864,1671.654175 1230.854858,1673.491943 1231.216553,1676.525879 
	C1218.767944,1677.350952 1206.966431,1676.887085 1194.004395,1676.788452 
	C1193.149902,1647.797485 1193.815918,1619.335693 1193.595215,1589.647461 
	C1197.933105,1589.401611 1201.748047,1589.053223 1205.566895,1588.998779 
	C1211.893677,1588.908447 1218.223022,1589.028442 1224.551270,1589.020020 
	C1229.892212,1589.012939 1230.774170,1591.628662 1228.569336,1596.975830 
	C1220.877563,1596.975830 1212.987793,1596.975830 1204.307739,1596.975830 
	C1204.307739,1607.030762 1204.307739,1616.145996 1204.307739,1626.494629 
	C1211.937622,1626.494629 1219.402222,1626.494629 1227.526611,1626.494629 
	C1227.757568,1629.710693 1227.904785,1631.759888 1228.134277,1634.956299 
	C1223.150757,1634.956299 1218.895386,1634.956299 1213.704834,1634.960693 
z"/>
<path fill="#24AFE0" opacity="1.000000" stroke="none" 
	d="
M2184.137695,1668.839478 
	C2192.045166,1668.912354 2198.981689,1668.912354 2206.302002,1668.912354 
	C2206.633545,1671.644409 2206.856201,1673.479492 2207.223389,1676.506348 
	C2194.779297,1677.370239 2182.981201,1676.878418 2169.987549,1676.789551 
	C2169.172119,1647.813232 2169.785645,1619.359375 2169.631104,1589.659058 
	C2173.899658,1589.411377 2177.709473,1589.055420 2181.523682,1588.999390 
	C2187.848633,1588.906494 2194.183105,1588.838379 2200.501465,1589.079346 
	C2205.393311,1589.265869 2205.385010,1589.482910 2204.709961,1596.943481 
	C2196.920654,1596.943481 2189.028564,1596.943481 2180.325195,1596.943481 
	C2180.325195,1606.979736 2180.325195,1616.090698 2180.325195,1626.451416 
	C2187.891357,1626.451416 2195.347168,1626.451416 2203.461182,1626.451416 
	C2203.741455,1629.660645 2203.920410,1631.711060 2204.202637,1634.941650 
	C2195.969971,1634.941650 2188.452148,1634.941650 2179.813721,1634.941650 
	C2179.813721,1645.898560 2179.711670,1655.776367 2179.960693,1665.645508 
	C2179.987305,1666.712158 2182.049072,1667.727417 2184.137695,1668.839478 
z"/>
<path fill="#24AFE0" opacity="1.000000" stroke="none" 
	d="
M2270.935791,1622.612061 
	C2270.018311,1618.010010 2268.979492,1614.095581 2268.975098,1610.179932 
	C2268.962891,1599.541382 2274.219238,1591.168091 2283.225830,1588.400024 
	C2292.929932,1585.417847 2302.152588,1586.406006 2310.256836,1594.644775 
	C2308.390625,1596.951904 2306.830811,1598.880371 2305.040771,1601.093262 
	C2303.215820,1599.848022 2301.931885,1598.865112 2300.550293,1598.047241 
	C2293.580322,1593.920288 2286.954346,1594.391357 2282.377930,1599.287231 
	C2277.366211,1604.648682 2276.862305,1614.703613 2281.809082,1620.393921 
	C2284.152100,1623.088867 2287.311768,1625.136353 2290.297363,1627.192505 
	C2293.298584,1629.259155 2296.691895,1630.763916 2299.655029,1632.876953 
	C2310.826416,1640.843628 2314.124512,1655.371704 2307.661133,1667.445435 
	C2300.978760,1679.928223 2284.058594,1682.962646 2271.190918,1673.963867 
	C2269.573975,1672.833130 2268.046143,1671.575317 2266.018555,1670.026001 
	C2268.149414,1667.242065 2269.647461,1665.285156 2271.186768,1663.273926 
	C2272.567383,1663.915161 2273.512939,1664.208252 2274.288086,1664.746582 
	C2275.648193,1665.691040 2276.813477,1666.933838 2278.218750,1667.792114 
	C2285.317627,1672.128418 2292.861572,1671.580688 2297.317627,1666.500977 
	C2302.361328,1660.751953 2302.805664,1651.209473 2297.530518,1645.444702 
	C2294.468994,1642.099121 2290.449219,1639.487793 2286.517822,1637.113525 
	C2280.494629,1633.475830 2274.424805,1630.050659 2270.935791,1622.612061 
z"/>
<path fill="#24AFE0" opacity="1.000000" stroke="none" 
	d="
M1340.993652,1664.937256 
	C1337.579956,1677.018188 1324.657104,1682.285522 1312.313843,1677.353027 
	C1306.186035,1674.904419 1301.372803,1670.704102 1298.541626,1664.870850 
	C1288.150757,1643.462646 1287.639160,1621.658813 1298.949341,1600.656006 
	C1307.675659,1584.451050 1327.641846,1582.105225 1340.466431,1594.657715 
	C1340.912354,1595.094116 1341.082275,1595.812622 1341.769409,1597.163574 
	C1340.406372,1598.768311 1338.836304,1600.616821 1337.095459,1602.666382 
	C1335.187500,1601.332397 1333.865234,1600.369019 1332.504883,1599.463135 
	C1321.814697,1592.344604 1312.298828,1594.257935 1306.983643,1605.711914 
	C1298.702759,1623.556519 1298.732056,1642.018555 1306.903198,1659.829590 
	C1312.693726,1672.451416 1322.992310,1674.039673 1333.329834,1664.753296 
	C1336.043335,1662.315552 1337.958740,1661.108276 1340.993652,1664.937256 
z"/>
<path fill="#24AFE0" opacity="1.000000" stroke="none" 
	d="
M1102.676758,1588.969482 
	C1109.899170,1588.966797 1116.212158,1588.959351 1122.525146,1588.963379 
	C1124.518188,1588.964600 1126.516235,1588.914429 1128.503174,1589.033447 
	C1131.260132,1589.198364 1134.432007,1589.640381 1133.597534,1593.299805 
	C1133.259033,1594.784302 1130.590210,1596.411255 1128.763062,1596.733276 
	C1125.588013,1597.292847 1122.243164,1596.889038 1117.835327,1596.889038 
	C1117.602539,1601.372681 1117.270508,1604.888916 1117.261963,1608.406006 
	C1117.212402,1628.674072 1117.303833,1648.942627 1117.205933,1669.210327 
	C1117.171143,1676.397217 1116.989380,1676.396362 1107.945679,1676.144775 
	C1107.945679,1650.196289 1107.945679,1624.160767 1107.945679,1597.815063 
	C1101.806641,1597.225342 1096.957153,1596.759399 1091.714111,1596.255737 
	C1091.714111,1593.938110 1091.714111,1592.074219 1091.714111,1588.968994 
	C1095.314331,1588.968994 1098.540894,1588.968994 1102.676758,1588.969482 
z"/>
<path fill="#24AFE0" opacity="1.000000" stroke="none" 
	d="
M1774.386230,1618.012207 
	C1774.446045,1635.226074 1774.505737,1651.442017 1774.570190,1668.967529 
	C1780.188599,1668.967529 1784.420288,1668.950317 1788.651611,1668.974365 
	C1790.978149,1668.987549 1793.455566,1668.599731 1795.579590,1669.281372 
	C1797.075928,1669.761841 1799.049316,1671.738403 1799.047974,1673.045288 
	C1799.046753,1674.299316 1796.862305,1676.509888 1795.487061,1676.634033 
	C1790.203003,1677.110474 1784.858887,1676.935425 1779.536987,1676.969360 
	C1775.246338,1676.996826 1770.955444,1676.974976 1766.907227,1676.974976 
	C1764.381592,1669.473633 1763.545044,1611.397461 1765.549316,1589.917114 
	C1767.999390,1589.723389 1770.648682,1589.514038 1774.385986,1589.218750 
	C1774.385986,1599.199219 1774.385986,1608.106812 1774.386230,1618.012207 
z"/>
<path fill="#24AFE0" opacity="1.000000" stroke="none" 
	d="
M2100.375488,1661.854492 
	C2100.375732,1666.785156 2100.375732,1670.732910 2100.375732,1674.929077 
	C2098.706787,1675.527466 2097.555664,1676.184326 2096.350830,1676.304199 
	C2095.121826,1676.426392 2093.840332,1676.020386 2091.959717,1675.759155 
	C2091.959717,1647.423584 2091.959717,1619.358887 2091.959717,1590.434204 
	C2094.261475,1590.210083 2096.624023,1589.980225 2100.375488,1589.615112 
	C2100.375488,1613.946777 2100.375488,1637.409302 2100.375488,1661.854492 
z"/>
<path fill="#47C4F3" opacity="1.000000" stroke="none" 
	d="
M866.463989,1501.990723 
	C858.258301,1549.430542 838.487976,1592.459595 813.496033,1633.059814 
	C798.920227,1656.738770 782.498169,1679.359985 765.776245,1701.607300 
	C756.886230,1713.434814 745.586731,1723.451294 734.758545,1733.771484 
	C735.309631,1730.617798 736.476990,1727.977783 737.828979,1724.920288 
	C732.519043,1722.068726 731.875488,1717.500488 731.956177,1712.238037 
	C732.106262,1702.442261 732.349487,1692.601807 731.730652,1683.512085 
	C726.233765,1680.791626 723.508362,1683.298462 720.967590,1686.034668 
	C712.425598,1695.234253 703.892700,1704.442993 695.455444,1713.738159 
	C692.136963,1717.393921 688.839905,1721.116821 685.991394,1725.134155 
	C684.184875,1727.681885 683.223450,1730.828857 681.883057,1733.707153 
	C659.107788,1730.230347 637.951294,1722.910034 620.384155,1706.765137 
	C625.099060,1700.576050 629.492310,1695.265869 634.012207,1690.066040 
	C645.510620,1676.837891 657.061279,1663.655151 668.600037,1650.462158 
	C674.045837,1644.235718 679.717712,1638.192261 684.894226,1631.750244 
	C688.197144,1627.639771 691.053589,1623.117432 690.118896,1617.244507 
	C689.629700,1614.170776 691.233887,1612.186768 695.112061,1611.844971 
	C713.385437,1621.634888 730.972351,1631.280884 748.940125,1641.135864 
	C751.417175,1637.110474 753.672058,1633.463135 755.910522,1629.805908 
	C768.541748,1609.168335 781.169006,1588.528320 794.350159,1567.643433 
	C795.268066,1566.296509 795.633362,1565.195312 795.984741,1564.041504 
	C795.970703,1563.989014 796.077576,1563.968872 796.525513,1563.762451 
	C797.534729,1563.109863 797.796570,1562.528687 797.841858,1561.831787 
	C797.924561,1561.850952 797.747192,1561.785400 798.314087,1561.557373 
	C799.220703,1560.211792 799.560486,1559.094116 799.929932,1557.971558 
	C799.959595,1557.966675 799.952820,1557.907104 800.451111,1557.674194 
	C801.173706,1556.768921 801.398010,1556.096558 801.679749,1555.052734 
	C801.737183,1554.681152 802.108521,1554.027466 802.797852,1553.925903 
	C804.293152,1551.867065 805.099060,1549.909790 805.949036,1547.972656 
	C805.993103,1547.992676 805.923889,1547.924072 806.455139,1547.651367 
	C807.332214,1546.278198 807.678040,1545.177856 808.006226,1544.039062 
	C807.988586,1544.000488 808.072388,1544.012695 808.764282,1543.921753 
	C810.274780,1541.880249 811.093323,1539.929565 811.942993,1537.978760 
	C811.974243,1537.978394 811.949158,1537.921143 812.473450,1537.653809 
	C813.354431,1536.305420 813.711182,1535.224365 814.037598,1534.082031 
	C814.007202,1534.020630 814.140747,1534.051392 814.843079,1533.980225 
	C817.454285,1531.791626 819.323914,1529.636963 821.283813,1527.567749 
	C823.017151,1525.737549 824.542603,1523.139771 826.692444,1522.371460 
	C837.279724,1518.587891 846.761047,1512.880005 856.118774,1506.821777 
	C859.095764,1504.894653 862.506836,1503.637939 865.719299,1502.074585 
	C865.719299,1502.074585 866.215088,1502.012695 866.463989,1501.990723 
z"/>
<path fill="#CAEEFC" opacity="1.000000" stroke="none" 
	d="
M587.145508,1578.866943 
	C587.160156,1559.943237 587.324707,1541.913330 588.454407,1522.950684 
	C594.935059,1522.114990 597.473633,1517.700562 600.451782,1514.332397 
	C613.390564,1499.699585 626.116760,1484.878784 638.926941,1470.132202 
	C644.358887,1463.879150 649.850769,1457.677612 655.238586,1451.386841 
	C666.002319,1438.819336 676.721130,1426.212891 687.443604,1413.609985 
	C697.893921,1401.327026 708.413330,1389.101196 718.722229,1376.700439 
	C722.802856,1371.791870 729.750549,1356.203979 730.304321,1349.988892 
	C731.214172,1339.777222 731.471924,1329.507812 732.022034,1319.263672 
	C732.192383,1316.090698 730.768860,1314.237793 727.613220,1313.745483 
	C729.860107,1309.139282 734.346191,1308.843262 738.563049,1308.146851 
	C774.510315,1302.209106 810.463074,1296.304932 847.679871,1290.825684 
	C851.897766,1292.204102 854.721191,1292.737183 856.197449,1288.982544 
	C857.040527,1288.790283 857.883667,1288.598022 859.930542,1288.899414 
	C864.238953,1290.175781 866.297302,1291.625732 866.067444,1295.368408 
	C865.809875,1299.561035 865.989746,1303.780518 865.267578,1308.065186 
	C859.292664,1310.855469 853.848755,1313.272461 848.803406,1316.343872 
	C838.051392,1322.889282 827.629150,1329.978149 816.851257,1336.478638 
	C792.424072,1351.211548 767.765503,1365.562622 743.416077,1380.421509 
	C736.025635,1384.931641 731.297363,1391.423218 731.888489,1401.041748 
	C732.438904,1409.998047 732.005310,1419.014771 732.004150,1428.835693 
	C731.990601,1432.435303 731.977844,1435.204346 731.286316,1438.080078 
	C724.065979,1445.557495 717.489685,1452.897461 710.989807,1460.304565 
	C697.682800,1475.469116 684.521790,1490.763306 671.096069,1505.821777 
	C662.497314,1515.466187 653.136719,1524.450684 644.820007,1534.322632 
	C630.557007,1551.252930 617.015625,1568.790527 602.786499,1585.750366 
	C598.930542,1590.346191 595.604614,1596.610718 587.896851,1595.986816 
	C587.696411,1590.578125 587.495972,1585.169434 587.145508,1578.866943 
z"/>
<path fill="#9ADFF9" opacity="1.000000" stroke="none" 
	d="
M731.965027,1437.973267 
	C731.977844,1435.204346 731.990601,1432.435303 732.704956,1428.763062 
	C736.501892,1425.989380 739.726135,1424.300415 742.667480,1422.213013 
	C750.207031,1416.861938 757.567810,1411.404297 766.590149,1408.447021 
	C770.525452,1407.157104 773.982239,1404.120972 777.365234,1401.501831 
	C782.057312,1397.869385 786.491882,1393.902222 791.006165,1390.042603 
	C795.769897,1385.969604 800.764038,1382.121338 805.188049,1377.704712 
	C815.745911,1367.164795 828.804626,1362.180176 843.154114,1360.050171 
	C851.600830,1358.796387 857.439026,1353.740723 863.085693,1347.965088 
	C867.508911,1343.440918 865.762451,1337.978394 865.924805,1332.862549 
	C866.187683,1324.578979 865.985291,1316.280518 865.979248,1307.988403 
	C865.989746,1303.780518 865.809875,1299.561035 866.067444,1295.368408 
	C866.297302,1291.625732 864.238953,1290.175781 860.581848,1288.913086 
	C862.216553,1287.886963 864.403748,1287.340820 868.206970,1286.391235 
	C868.217834,1314.227051 868.228333,1341.164185 868.432617,1369.007568 
	C868.471497,1371.437500 868.316589,1372.961182 867.637634,1375.536621 
	C867.394714,1377.725708 867.675781,1378.862915 867.956787,1380.000244 
	C867.991699,1381.491943 868.026611,1382.983643 867.204468,1385.219360 
	C857.599915,1383.222534 848.711121,1380.855591 840.149719,1377.621948 
	C833.369934,1375.061279 828.045471,1377.310913 822.343567,1380.484863 
	C812.634460,1385.889526 807.114380,1395.218872 800.495178,1403.401123 
	C787.182251,1419.857788 774.629333,1436.927979 761.390503,1453.446533 
	C756.887634,1459.064819 751.478394,1464.021240 746.114624,1468.872437 
	C732.216248,1481.442871 732.134277,1481.352295 732.008362,1500.422363 
	C732.003967,1501.088745 731.999634,1501.755127 731.995972,1502.421509 
	C731.920593,1516.128662 724.124451,1526.057861 715.249390,1535.104980 
	C707.781067,1542.717896 697.679443,1540.469727 688.687988,1539.538086 
	C677.655334,1538.395020 668.786194,1540.390503 661.475525,1549.310303 
	C655.112549,1557.073853 650.352905,1565.024414 651.993958,1575.509888 
	C652.803101,1580.680176 654.189636,1585.375366 660.492615,1586.913574 
	C662.403748,1589.391602 664.224243,1591.293457 665.821777,1593.934082 
	C665.324036,1596.262939 664.407593,1598.082642 664.880615,1599.405396 
	C667.544250,1606.853516 665.460876,1613.089722 660.623047,1618.806396 
	C654.210754,1626.383667 647.824280,1633.982910 641.393494,1641.544556 
	C630.672363,1654.151245 619.845215,1666.669189 609.246338,1679.377441 
	C606.695312,1682.436035 603.973694,1684.340210 599.935120,1684.026245 
	C590.063965,1670.158813 586.320129,1654.645752 588.418091,1636.834229 
	C591.436951,1634.344849 593.864990,1633.116577 595.629517,1631.258301 
	C604.533447,1621.880615 613.733337,1612.721069 621.889526,1602.718628 
	C627.224182,1596.176514 633.737305,1590.129272 635.416443,1581.044922 
	C637.721680,1568.573608 642.146545,1556.908081 649.726807,1546.556885 
	C657.557678,1535.863647 666.704590,1526.665039 680.222168,1524.201904 
	C689.397156,1522.530151 695.908997,1517.821411 701.576721,1510.913452 
	C706.571167,1504.826172 711.977905,1499.073853 717.266296,1493.231445 
	C725.852417,1483.745850 733.443665,1473.999878 732.106140,1459.918457 
	C731.416992,1452.664307 731.972107,1445.292114 731.965027,1437.973267 
z"/>
<path fill="#B4E7FA" opacity="1.000000" stroke="none" 
	d="
M731.286316,1438.080078 
	C731.972107,1445.292114 731.416992,1452.664307 732.106140,1459.918457 
	C733.443665,1473.999878 725.852417,1483.745850 717.266296,1493.231445 
	C711.977905,1499.073853 706.571167,1504.826172 701.576721,1510.913452 
	C695.908997,1517.821411 689.397156,1522.530151 680.222168,1524.201904 
	C666.704590,1526.665039 657.557678,1535.863647 649.726807,1546.556885 
	C642.146545,1556.908081 637.721680,1568.573608 635.416443,1581.044922 
	C633.737305,1590.129272 627.224182,1596.176514 621.889526,1602.718628 
	C613.733337,1612.721069 604.533447,1621.880615 595.629517,1631.258301 
	C593.864990,1633.116577 591.436951,1634.344849 588.620239,1635.928833 
	C587.770447,1623.270264 587.615295,1610.546387 587.678467,1596.904785 
	C595.604614,1596.610718 598.930542,1590.346191 602.786499,1585.750366 
	C617.015625,1568.790527 630.557007,1551.252930 644.820007,1534.322632 
	C653.136719,1524.450684 662.497314,1515.466187 671.096069,1505.821777 
	C684.521790,1490.763306 697.682800,1475.469116 710.989807,1460.304565 
	C717.489685,1452.897461 724.065979,1445.557495 731.286316,1438.080078 
z"/>
<path fill="#71D1F5" opacity="1.000000" stroke="none" 
	d="
M600.068237,1684.702271 
	C603.973694,1684.340210 606.695312,1682.436035 609.246338,1679.377441 
	C619.845215,1666.669189 630.672363,1654.151245 641.393494,1641.544556 
	C647.824280,1633.982910 654.210754,1626.383667 660.623047,1618.806396 
	C665.460876,1613.089722 667.544250,1606.853516 664.880615,1599.405396 
	C664.407593,1598.082642 665.324036,1596.262939 666.315735,1594.137695 
	C667.362610,1593.731445 667.692688,1593.860352 668.260315,1594.452881 
	C669.120544,1595.175293 669.743103,1595.433838 671.044067,1595.846191 
	C676.827087,1598.854980 682.096558,1601.459351 686.973022,1604.661987 
	C689.785217,1606.508911 691.962524,1609.322510 694.425537,1611.701172 
	C691.233887,1612.186768 689.629700,1614.170776 690.118896,1617.244507 
	C691.053589,1623.117432 688.197144,1627.639771 684.894226,1631.750244 
	C679.717712,1638.192261 674.045837,1644.235718 668.600037,1650.462158 
	C657.061279,1663.655151 645.510620,1676.837891 634.012207,1690.066040 
	C629.492310,1695.265869 625.099060,1700.576050 619.994141,1706.204468 
	C611.064026,1701.220581 605.368774,1693.537842 600.068237,1684.702271 
z"/>
<path fill="#24AFE0" opacity="1.000000" stroke="none" 
	d="
M682.696045,1733.938599 
	C683.223450,1730.828857 684.184875,1727.681885 685.991394,1725.134155 
	C688.839905,1721.116821 692.136963,1717.393921 695.455444,1713.738159 
	C703.892700,1704.442993 712.425598,1695.234253 720.967590,1686.034668 
	C723.508362,1683.298462 726.233765,1680.791626 731.730652,1683.512085 
	C732.349487,1692.601807 732.106262,1702.442261 731.956177,1712.238037 
	C731.875488,1717.500488 732.519043,1722.068726 737.828979,1724.920288 
	C736.476990,1727.977783 735.309631,1730.617798 734.108276,1734.042725 
	C731.161682,1735.889404 728.181702,1738.013184 725.347900,1737.833496 
	C711.380310,1736.947510 697.451477,1735.451050 682.696045,1733.938599 
z"/>
<path fill="#FAFDFD" opacity="1.000000" stroke="none" 
	d="
M1263.302490,1414.028320 
	C1304.427734,1424.682251 1307.230225,1470.859619 1293.438599,1493.484741 
	C1283.048950,1510.529175 1263.465576,1518.967041 1241.583130,1515.710205 
	C1222.323853,1512.843994 1206.861938,1498.485840 1202.249756,1479.305786 
	C1199.784424,1469.053467 1199.838989,1458.831665 1202.554321,1448.677979 
	C1208.811523,1425.281006 1229.834717,1410.777466 1254.599121,1412.710449 
	C1257.245361,1412.916992 1259.862915,1413.491577 1263.302490,1414.028320 
z"/>
<path fill="#FAFDFD" opacity="1.000000" stroke="none" 
	d="
M1038.581055,1416.383301 
	C1049.788696,1416.956787 1060.186401,1416.726318 1070.304810,1418.295776 
	C1092.748291,1421.776733 1107.983521,1437.174561 1109.915894,1457.034790 
	C1112.802612,1486.703979 1098.761230,1505.454712 1069.388184,1510.911499 
	C1065.166504,1511.695801 1060.814209,1511.972900 1056.512085,1512.084106 
	C1049.285156,1512.270752 1042.049805,1512.135254 1033.859741,1512.135254 
	C1033.859741,1509.220215 1033.859741,1506.993774 1033.859741,1504.767334 
	C1033.859863,1478.169189 1033.781250,1451.570312 1033.967773,1424.973511 
	C1033.989136,1421.911621 1031.574341,1417.133301 1038.581055,1416.383301 
z"/>
<path fill="#FAFDFD" opacity="1.000000" stroke="none" 
	d="
M727.025757,1314.047119 
	C730.768860,1314.237793 732.192383,1316.090698 732.022034,1319.263672 
	C731.471924,1329.507812 731.214172,1339.777222 730.304321,1349.988892 
	C729.750549,1356.203979 722.802856,1371.791870 718.722229,1376.700439 
	C708.413330,1389.101196 697.893921,1401.327026 687.443604,1413.609985 
	C676.721130,1426.212891 666.002319,1438.819336 655.238586,1451.386841 
	C649.850769,1457.677612 644.358887,1463.879150 638.926941,1470.132202 
	C626.116760,1484.878784 613.390564,1499.699585 600.451782,1514.332397 
	C597.473633,1517.700562 594.935059,1522.114990 588.679199,1522.039429 
	C587.835449,1519.247925 587.731934,1516.435059 588.275574,1512.439453 
	C588.574707,1509.521729 588.226624,1507.786621 587.878540,1506.051392 
	C587.740967,1487.270020 587.603333,1468.488770 587.755737,1448.445190 
	C588.045715,1447.182983 588.166077,1446.293213 588.166077,1446.293213 
	C610.733765,1424.687134 633.301453,1403.081055 656.097046,1380.832764 
	C656.325012,1380.190552 656.177124,1380.076050 656.705811,1380.074463 
	C657.586731,1379.411499 657.939087,1378.750122 658.291382,1378.088623 
	C658.291382,1378.088623 658.068665,1378.074829 658.680481,1378.112305 
	C659.630310,1377.463623 659.968323,1376.777466 660.306335,1376.091309 
	C660.306335,1376.091309 660.073486,1376.075317 660.684937,1376.115479 
	C661.638367,1375.469727 661.980469,1374.783936 662.322571,1374.098022 
	C662.322571,1374.098022 662.090515,1374.070312 662.661316,1374.078003 
	C663.543030,1373.393188 663.853943,1372.700562 664.164856,1372.008057 
	C664.164856,1372.008057 664.008423,1372.006836 664.531677,1371.917725 
	C665.425659,1371.223145 665.796326,1370.617676 666.166992,1370.012207 
	C666.166992,1370.012207 666.009705,1370.009766 666.536011,1369.922119 
	C667.435364,1369.229370 667.808350,1368.624390 668.181396,1368.019409 
	C668.181396,1368.019409 668.015869,1368.016113 668.546753,1367.937012 
	C669.444946,1367.244629 669.812195,1366.631348 670.179382,1366.018188 
	C670.179382,1366.018188 670.014893,1366.014771 670.546509,1365.936768 
	C671.448364,1365.246826 671.818665,1364.634766 672.188965,1364.022705 
	C672.188904,1364.022705 672.023987,1364.028076 672.559570,1363.986816 
	C673.401550,1363.755615 673.707947,1363.565674 674.014282,1363.375732 
	C677.286621,1360.628662 680.711487,1358.042358 683.804993,1355.106812 
	C698.066589,1341.573853 712.235901,1327.943848 727.025757,1314.047119 
z"/>
<path fill="#9ADFF9" opacity="1.000000" stroke="none" 
	d="
M855.520203,1288.765869 
	C854.721191,1292.737183 851.897766,1292.204102 848.485718,1290.826172 
	C850.298218,1289.777466 852.570618,1289.163208 855.520203,1288.765869 
z"/>
<path fill="#0386B9" opacity="1.000000" stroke="none" 
	d="
M657.773315,1378.266357 
	C657.939087,1378.750122 657.586731,1379.411499 656.638672,1380.139648 
	C656.447021,1379.618896 656.851074,1379.031494 657.773315,1378.266357 
z"/>
<path fill="#0386B9" opacity="1.000000" stroke="none" 
	d="
M659.780518,1376.277100 
	C659.968323,1376.777466 659.630310,1377.463623 658.689575,1378.223511 
	C658.476196,1377.685791 658.865479,1377.074219 659.780518,1376.277100 
z"/>
<path fill="#0386B9" opacity="1.000000" stroke="none" 
	d="
M661.793945,1374.282959 
	C661.980469,1374.783936 661.638367,1375.469727 660.693542,1376.231934 
	C660.482239,1375.694702 660.873779,1375.081299 661.793945,1374.282959 
z"/>
<path fill="#0386B9" opacity="1.000000" stroke="none" 
	d="
M663.668457,1372.233398 
	C663.853943,1372.700562 663.543030,1373.393188 662.665161,1374.194824 
	C662.456116,1373.688843 662.814087,1373.073853 663.668457,1372.233398 
z"/>
<path fill="#0386B9" opacity="1.000000" stroke="none" 
	d="
M665.675537,1370.220215 
	C665.796326,1370.617676 665.425659,1371.223145 664.532593,1371.995850 
	C664.401550,1371.584839 664.792786,1371.006592 665.675537,1370.220215 
z"/>
<path fill="#0386B9" opacity="1.000000" stroke="none" 
	d="
M667.687378,1368.225342 
	C667.808350,1368.624390 667.435364,1369.229370 666.537109,1370.000732 
	C666.405701,1369.588379 666.799622,1369.009766 667.687378,1368.225342 
z"/>
<path fill="#0386B9" opacity="1.000000" stroke="none" 
	d="
M669.684692,1366.225464 
	C669.812195,1366.631348 669.444946,1367.244629 668.548584,1368.019775 
	C668.409729,1367.598755 668.799927,1367.015747 669.684692,1366.225464 
z"/>
<path fill="#0386B9" opacity="1.000000" stroke="none" 
	d="
M671.692383,1364.227539 
	C671.818665,1364.634766 671.448364,1365.246826 670.548218,1366.019043 
	C670.410767,1365.597046 670.803223,1365.014648 671.692383,1364.227539 
z"/>
<path fill="#0386B9" opacity="1.000000" stroke="none" 
	d="
M673.719116,1363.150513 
	C673.707947,1363.565674 673.401550,1363.755615 672.568115,1364.068848 
	C672.501953,1363.770020 672.962952,1363.347656 673.719116,1363.150513 
z"/>
<path fill="#FAFDFD" opacity="1.000000" stroke="none" 
	d="
M1902.428711,1437.760986 
	C1908.267090,1452.529175 1913.839600,1466.607788 1919.677612,1481.356934 
	C1906.461426,1481.356934 1894.570557,1481.356934 1881.302124,1481.356934 
	C1886.315186,1464.932861 1893.318604,1449.885864 1899.683960,1432.500732 
	C1901.116089,1435.141113 1901.639526,1436.106201 1902.428711,1437.760986 
z"/>
<path fill="#CAEEFC" opacity="1.000000" stroke="none" 
	d="
M587.659729,1506.773682 
	C588.226624,1507.786621 588.574707,1509.521729 588.409912,1511.604980 
	C587.744995,1510.467285 587.592957,1508.981567 587.659729,1506.773682 
z"/>
<path fill="#24AFE0" opacity="1.000000" stroke="none" 
	d="
M587.825562,1446.294434 
	C588.166077,1446.293213 588.045715,1447.182983 587.728394,1447.497070 
	C587.256348,1447.439575 587.062439,1447.076782 586.976440,1446.689941 
	C586.956543,1446.600586 587.305664,1446.429321 587.825562,1446.294434 
z"/>
<path fill="#FAFDFD" opacity="1.000000" stroke="none" 
	d="
M2244.213379,1441.878784 
	C2244.212891,1434.334473 2244.212891,1427.754395 2244.212891,1420.255493 
	C2252.133301,1420.255493 2259.375732,1419.598389 2266.447266,1420.417847 
	C2275.767334,1421.497803 2280.985596,1428.129639 2281.321777,1437.525146 
	C2281.666992,1447.163818 2277.320312,1454.468384 2268.498047,1456.313232 
	C2261.155029,1457.848633 2253.445801,1457.630005 2244.437500,1458.296509 
	C2244.353516,1452.493774 2244.283691,1447.668457 2244.213379,1441.878784 
z"/>
<path fill="#FAFDFD" opacity="1.000000" stroke="none" 
	d="
M668.022705,1593.989136 
	C667.692688,1593.860352 667.362610,1593.731445 666.538696,1593.398926 
	C664.224243,1591.293457 662.403748,1589.391602 661.007446,1586.480225 
	C669.248352,1572.972900 677.064941,1560.474976 684.914001,1547.925415 
	C690.611267,1551.091675 695.214600,1553.650024 700.228821,1556.752686 
	C710.900757,1563.188843 721.161682,1569.080811 731.840149,1575.212402 
	C734.307190,1571.607666 736.294495,1568.995361 737.976013,1566.199219 
	C748.444275,1548.791260 758.813843,1531.323853 769.275757,1513.912109 
	C778.130005,1499.175781 787.115967,1484.518555 795.945068,1469.767334 
	C801.245667,1460.911499 806.342163,1451.933594 811.558411,1443.026978 
	C815.521606,1436.260132 819.636780,1429.579956 823.482849,1422.747925 
	C826.549133,1417.301147 829.311279,1411.683228 832.166138,1406.084961 
	C832.123901,1406.028809 832.040100,1406.141724 832.597534,1406.043213 
	C833.561157,1405.318726 833.967285,1404.692749 834.917114,1403.671143 
	C837.633606,1400.036865 839.806274,1396.798218 842.172913,1393.270630 
	C851.194641,1397.847046 859.396606,1402.007690 867.598633,1406.168457 
	C872.520813,1409.802002 877.443054,1413.435669 882.521606,1417.184570 
	C877.426270,1427.009888 872.491089,1436.526367 866.779663,1446.973267 
	C864.221558,1450.289551 862.225403,1452.545898 860.692566,1455.082153 
	C849.845032,1473.030518 839.030334,1490.999512 828.337646,1509.040405 
	C823.450623,1517.285645 818.863708,1525.708862 814.140747,1534.051392 
	C814.140747,1534.051392 814.007202,1534.020630 813.503296,1534.337158 
	C812.649292,1535.742798 812.299255,1536.832031 811.949158,1537.921143 
	C811.949158,1537.921143 811.974243,1537.978394 811.363037,1538.238892 
	C809.858704,1540.337158 808.965515,1542.174927 808.072388,1544.012695 
	C808.072388,1544.012695 807.988586,1544.000488 807.473633,1544.307861 
	C806.613708,1545.718262 806.268799,1546.821167 805.923950,1547.924072 
	C805.923889,1547.924072 805.993103,1547.992676 805.374329,1548.243896 
	C803.873169,1550.339233 802.990845,1552.183350 802.108521,1554.027466 
	C802.108521,1554.027466 801.737183,1554.681152 801.233887,1555.338867 
	C800.471313,1556.633545 800.212097,1557.270264 799.952820,1557.907104 
	C799.952820,1557.907104 799.959595,1557.966675 799.403320,1558.241455 
	C798.480469,1559.605957 798.113831,1560.695679 797.747192,1561.785400 
	C797.747192,1561.785400 797.924561,1561.850952 797.374390,1562.012695 
	C796.575378,1562.772461 796.326477,1563.370728 796.077637,1563.968872 
	C796.077576,1563.968872 795.970703,1563.989014 795.462280,1564.312744 
	C794.568481,1565.720703 794.182983,1566.804932 793.797607,1567.889038 
	C781.169006,1588.528320 768.541748,1609.168335 755.910522,1629.805908 
	C753.672058,1633.463135 751.417175,1637.110474 748.940125,1641.135864 
	C730.972351,1631.280884 713.385437,1621.634888 695.112061,1611.844971 
	C691.962524,1609.322510 689.785217,1606.508911 686.973022,1604.661987 
	C682.096558,1601.459351 676.827087,1598.854980 670.761719,1595.428711 
	C669.208191,1594.568115 668.615417,1594.278564 668.022705,1593.989136 
z"/>
<path fill="#71D1F5" opacity="1.000000" stroke="none" 
	d="
M867.790649,1405.267090 
	C859.396606,1402.007690 851.194641,1397.847046 842.172913,1393.270630 
	C839.806274,1396.798218 837.633606,1400.036865 834.408813,1403.867676 
	C832.917847,1405.020630 832.479004,1405.581177 832.040161,1406.141724 
	C832.040100,1406.141724 832.123901,1406.028809 831.384521,1406.033936 
	C826.164368,1405.282104 822.979065,1407.458618 820.285156,1410.668579 
	C809.038879,1424.069336 797.691895,1437.387939 786.609375,1450.923096 
	C778.960815,1460.264648 771.382996,1469.693115 764.314209,1479.473511 
	C753.893188,1493.891968 743.942383,1508.650513 733.831482,1523.291870 
	C733.097717,1524.354370 732.390320,1525.589478 732.176575,1526.831543 
	C730.685120,1535.499146 725.311829,1541.732544 719.330811,1547.576172 
	C716.132019,1550.701660 713.634888,1554.736206 707.631165,1552.825806 
	C705.592041,1552.177002 702.453857,1554.981812 699.817871,1556.208374 
	C695.214600,1553.650024 690.611267,1551.091675 684.914001,1547.925415 
	C677.064941,1560.474976 669.248352,1572.972900 660.916870,1585.904053 
	C654.189636,1585.375366 652.803101,1580.680176 651.993958,1575.509888 
	C650.352905,1565.024414 655.112549,1557.073853 661.475525,1549.310303 
	C668.786194,1540.390503 677.655334,1538.395020 688.687988,1539.538086 
	C697.679443,1540.469727 707.781067,1542.717896 715.249390,1535.104980 
	C724.124451,1526.057861 731.920593,1516.128662 731.995972,1502.421509 
	C731.999634,1501.755127 732.003967,1501.088745 732.008362,1500.422363 
	C732.134277,1481.352295 732.216248,1481.442871 746.114624,1468.872437 
	C751.478394,1464.021240 756.887634,1459.064819 761.390503,1453.446533 
	C774.629333,1436.927979 787.182251,1419.857788 800.495178,1403.401123 
	C807.114380,1395.218872 812.634460,1385.889526 822.343567,1380.484863 
	C828.045471,1377.310913 833.369934,1375.061279 840.149719,1377.621948 
	C848.711121,1380.855591 857.599915,1383.222534 867.114380,1385.960938 
	C867.915100,1392.094360 867.948853,1398.229980 867.790649,1405.267090 
z"/>
<path fill="#71D1F5" opacity="1.000000" stroke="none" 
	d="
M814.843079,1533.980225 
	C818.863708,1525.708862 823.450623,1517.285645 828.337646,1509.040405 
	C839.030334,1490.999512 849.845032,1473.030518 860.692566,1455.082153 
	C862.225403,1452.545898 864.221558,1450.289551 866.634888,1447.697021 
	C868.700989,1465.162109 868.867676,1482.802734 865.835693,1501.220581 
	C862.506836,1503.637939 859.095764,1504.894653 856.118774,1506.821777 
	C846.761047,1512.880005 837.279724,1518.587891 826.692444,1522.371460 
	C824.542603,1523.139771 823.017151,1525.737549 821.283813,1527.567749 
	C819.323914,1529.636963 817.454285,1531.791626 814.843079,1533.980225 
z"/>
<path fill="#71D1F5" opacity="1.000000" stroke="none" 
	d="
M868.097046,1379.340210 
	C867.675781,1378.862915 867.394714,1377.725708 867.555481,1376.296631 
	C868.077332,1376.896606 868.157349,1377.788452 868.097046,1379.340210 
z"/>
<path fill="#FAFDFD" opacity="1.000000" stroke="none" 
	d="
M1899.336426,1644.650635 
	C1897.354492,1651.173218 1896.321533,1657.281860 1893.506714,1662.412842 
	C1887.352417,1673.631226 1874.793091,1673.700317 1867.836548,1662.984497 
	C1866.404907,1660.779175 1865.144897,1658.325439 1864.438477,1655.808594 
	C1860.404053,1641.435303 1860.070312,1626.889526 1863.754517,1612.441284 
	C1866.577271,1601.370850 1873.060547,1594.960327 1880.392822,1594.889771 
	C1888.012573,1594.816406 1895.508667,1601.752686 1897.438965,1613.102539 
	C1899.149170,1623.157471 1898.875366,1633.549805 1899.336426,1644.650635 
z"/>
<path fill="#FAFDFD" opacity="1.000000" stroke="none" 
	d="
M1684.755615,1658.305908 
	C1682.826294,1661.538696 1681.605225,1664.407593 1679.584473,1666.506226 
	C1673.886719,1672.422729 1664.811768,1672.134644 1659.152832,1666.118530 
	C1658.023926,1664.918579 1656.906006,1663.569214 1656.252075,1662.082397 
	C1647.758789,1642.770508 1647.100708,1623.143433 1656.304565,1604.131958 
	C1662.423584,1591.492798 1675.629883,1591.851440 1682.915039,1604.096802 
	C1688.402710,1613.320679 1689.275391,1623.789917 1688.998779,1634.058228 
	C1688.786499,1641.931519 1686.475952,1649.748291 1684.755615,1658.305908 
z"/>
<path fill="#71D1F5" opacity="1.000000" stroke="none" 
	d="
M808.764282,1543.921753 
	C808.965515,1542.174927 809.858704,1540.337158 811.331787,1538.239258 
	C811.093323,1539.929565 810.274780,1541.880249 808.764282,1543.921753 
z"/>
<path fill="#71D1F5" opacity="1.000000" stroke="none" 
	d="
M802.797852,1553.925903 
	C802.990845,1552.183350 803.873169,1550.339233 805.330261,1548.223877 
	C805.099060,1549.909790 804.293152,1551.867065 802.797852,1553.925903 
z"/>
<path fill="#71D1F5" opacity="1.000000" stroke="none" 
	d="
M798.314087,1561.557373 
	C798.113831,1560.695679 798.480469,1559.605957 799.373657,1558.246338 
	C799.560486,1559.094116 799.220703,1560.211792 798.314087,1561.557373 
z"/>
<path fill="#71D1F5" opacity="1.000000" stroke="none" 
	d="
M812.473450,1537.653809 
	C812.299255,1536.832031 812.649292,1535.742798 813.533691,1534.398560 
	C813.711182,1535.224365 813.354431,1536.305420 812.473450,1537.653809 
z"/>
<path fill="#71D1F5" opacity="1.000000" stroke="none" 
	d="
M806.455200,1547.651367 
	C806.268799,1546.821167 806.613708,1545.718262 807.491211,1544.346436 
	C807.678040,1545.177856 807.332214,1546.278198 806.455200,1547.651367 
z"/>
<path fill="#71D1F5" opacity="1.000000" stroke="none" 
	d="
M794.350098,1567.643433 
	C794.182983,1566.804932 794.568481,1565.720703 795.476318,1564.365234 
	C795.633362,1565.195312 795.268066,1566.296509 794.350098,1567.643433 
z"/>
<path fill="#71D1F5" opacity="1.000000" stroke="none" 
	d="
M796.525574,1563.762451 
	C796.326477,1563.370728 796.575378,1562.772461 797.291748,1561.993408 
	C797.796570,1562.528687 797.534729,1563.109863 796.525574,1563.762451 
z"/>
<path fill="#71D1F5" opacity="1.000000" stroke="none" 
	d="
M800.451111,1557.674194 
	C800.212097,1557.270264 800.471313,1556.633545 801.176392,1555.710449 
	C801.398010,1556.096558 801.173706,1556.768921 800.451111,1557.674194 
z"/>
<path fill="#B4E7FA" opacity="1.000000" stroke="none" 
	d="
M865.267639,1308.065186 
	C865.985291,1316.280518 866.187683,1324.578979 865.924805,1332.862549 
	C865.762451,1337.978394 867.508911,1343.440918 863.085693,1347.965088 
	C857.439026,1353.740723 851.600830,1358.796387 843.154114,1360.050171 
	C828.804626,1362.180176 815.745911,1367.164795 805.188049,1377.704712 
	C800.764038,1382.121338 795.769897,1385.969604 791.006165,1390.042603 
	C786.491882,1393.902222 782.057312,1397.869385 777.365234,1401.501831 
	C773.982239,1404.120972 770.525452,1407.157104 766.590149,1408.447021 
	C757.567810,1411.404297 750.207031,1416.861938 742.667480,1422.213013 
	C739.726135,1424.300415 736.501892,1425.989380 732.705688,1427.932373 
	C732.005310,1419.014771 732.438904,1409.998047 731.888489,1401.041748 
	C731.297363,1391.423218 736.025635,1384.931641 743.416077,1380.421509 
	C767.765503,1365.562622 792.424072,1351.211548 816.851257,1336.478638 
	C827.629150,1329.978149 838.051392,1322.889282 848.803406,1316.343872 
	C853.848755,1313.272461 859.292664,1310.855469 865.267639,1308.065186 
z"/>
<path fill="#9ADFF9" opacity="1.000000" stroke="none" 
	d="
M668.260315,1594.452881 
	C668.615417,1594.278564 669.208191,1594.568115 670.083313,1595.275024 
	C669.743103,1595.433838 669.120544,1595.175293 668.260315,1594.452881 
z"/>
<path fill="#47C4F3" opacity="1.000000" stroke="none" 
	d="
M700.228821,1556.752686 
	C702.453857,1554.981812 705.592041,1552.177002 707.631165,1552.825806 
	C713.634888,1554.736206 716.132019,1550.701660 719.330811,1547.576172 
	C725.311829,1541.732544 730.685120,1535.499146 732.176575,1526.831543 
	C732.390320,1525.589478 733.097717,1524.354370 733.831482,1523.291870 
	C743.942383,1508.650513 753.893188,1493.891968 764.314209,1479.473511 
	C771.382996,1469.693115 778.960815,1460.264648 786.609375,1450.923096 
	C797.691895,1437.387939 809.038879,1424.069336 820.285156,1410.668579 
	C822.979065,1407.458618 826.164368,1405.282104 831.426819,1406.090088 
	C829.311279,1411.683228 826.549133,1417.301147 823.482849,1422.747925 
	C819.636780,1429.579956 815.521606,1436.260132 811.558411,1443.026978 
	C806.342163,1451.933594 801.245667,1460.911499 795.945068,1469.767334 
	C787.115967,1484.518555 778.130005,1499.175781 769.275757,1513.912109 
	C758.813843,1531.323853 748.444275,1548.791260 737.976013,1566.199219 
	C736.294495,1568.995361 734.307190,1571.607666 731.840149,1575.212402 
	C721.161682,1569.080811 710.900757,1563.188843 700.228821,1556.752686 
z"/>
<path fill="#47C4F3" opacity="1.000000" stroke="none" 
	d="
M832.597595,1406.043213 
	C832.479004,1405.581177 832.917847,1405.020630 833.864990,1404.263428 
	C833.967285,1404.692749 833.561157,1405.318726 832.597595,1406.043213 
z"/>
</svg>