<svg xmlns="http://www.w3.org/2000/svg" xmlns:xlink="http://www.w3.org/1999/xlink" width="500" zoomAndPan="magnify" viewBox="0 0 375 374.999991" height="500" preserveAspectRatio="xMidYMid meet" version="1.0"><defs><g/><clipPath id="116d3a7cb7"><path d="M 267 102 L 271.859375 102 L 271.859375 107 L 267 107 Z M 267 102 " clip-rule="nonzero"/></clipPath><clipPath id="b805666ff6"><path d="M 139.859375 78.539062 L 236 78.539062 L 236 187.289062 L 139.859375 187.289062 Z M 139.859375 78.539062 " clip-rule="nonzero"/></clipPath></defs><path fill="#279dd7" d="M 229.410156 98.5625 L 242.933594 98.5625 L 242.933594 112.117188 L 229.410156 112.117188 Z M 229.410156 98.5625 " fill-opacity="1" fill-rule="evenodd"/><path fill="#184b81" d="M 242.632812 116.785156 L 253.003906 116.785156 L 253.003906 127.179688 L 242.632812 127.179688 Z M 242.632812 116.785156 " fill-opacity="1" fill-rule="evenodd"/><path fill="#279dd7" d="M 253.453125 102.175781 L 261.867188 102.175781 L 261.867188 110.613281 L 253.453125 110.613281 Z M 253.453125 102.175781 " fill-opacity="1" fill-rule="evenodd"/><g clip-path="url(#116d3a7cb7)"><path fill="#184b81" d="M 267.804688 102.703125 L 271.859375 102.703125 L 271.859375 106.769531 L 267.804688 106.769531 Z M 267.804688 102.703125 " fill-opacity="1" fill-rule="evenodd"/></g><path fill="#184b81" d="M 260.59375 91.933594 L 265.550781 91.933594 L 265.550781 96.902344 L 260.59375 96.902344 Z M 260.59375 91.933594 " fill-opacity="1" fill-rule="evenodd"/><path fill="#279dd7" d="M 254.507812 82.066406 L 258.5625 82.066406 L 258.5625 86.132812 L 254.507812 86.132812 Z M 254.507812 82.066406 " fill-opacity="1" fill-rule="evenodd"/><path fill="#ffffcc" d="M 265.777344 82.519531 L 267.277344 82.519531 L 267.277344 84.027344 L 265.777344 84.027344 Z M 265.777344 82.519531 " fill-opacity="1" fill-rule="evenodd"/><path fill="#184b81" d="M 199.824219 126.710938 C 199.824219 120.136719 194.5 114.800781 187.941406 114.800781 L 187.941406 94.535156 C 177.425781 103.792969 164.882812 110.414062 151.265625 113.695312 C 152 127.964844 155.78125 142.5625 163.285156 154.734375 C 168.953125 163.933594 177.359375 172.488281 187.941406 175.628906 L 187.941406 151.015625 L 201.117188 151.015625 L 195.394531 135.984375 C 198.15625 133.753906 199.824219 130.359375 199.824219 126.707031 Z M 183.992188 134.835938 C 180.992188 133.371094 178.925781 130.28125 178.925781 126.710938 C 178.925781 121.71875 182.964844 117.671875 187.941406 117.671875 C 192.921875 117.671875 196.960938 121.71875 196.960938 126.710938 C 196.960938 130.28125 194.890625 133.371094 191.890625 134.835938 L 192.449219 136.304688 L 196.960938 148.144531 L 178.925781 148.144531 L 183.433594 136.304688 Z M 183.992188 134.835938 " fill-opacity="1" fill-rule="evenodd"/><g clip-path="url(#b805666ff6)"><path fill="#279dd7" d="M 187.941406 90.664062 C 197.738281 99.816406 209.492188 106.53125 222.351562 110.140625 L 222.351562 119.195312 L 227.0625 119.195312 C 225.710938 132.222656 221.84375 145.195312 215.035156 156.25 C 208.824219 166.324219 199.59375 175.472656 187.9375 178.613281 C 176.285156 175.472656 167.054688 166.320312 160.84375 156.25 C 152.675781 142.996094 148.742188 126.96875 148.308594 111.421875 C 163.203125 108.285156 176.832031 101.042969 187.9375 90.664062 Z M 225.804688 111.027344 L 225.804688 102.339844 C 210.984375 98.453125 197.886719 90.019531 187.941406 78.535156 C 175.785156 92.570312 158.910156 102.058594 139.941406 104.246094 C 139.886719 105.65625 139.863281 107.070312 139.863281 108.5 C 139.863281 148.40625 160.726562 181.46875 187.945312 187.28125 C 213.5 181.828125 233.453125 152.34375 235.796875 115.730469 L 225.808594 115.730469 L 225.808594 111.027344 Z M 225.804688 111.027344 " fill-opacity="1" fill-rule="evenodd"/></g><g fill="#184b81" fill-opacity="1"><g transform="translate(74.332031, 248.113592)"><g><path d="M 2.609375 -33.4375 L 17.96875 -33.4375 C 23.070312 -33.4375 25.625 -31.28125 25.625 -26.96875 L 25.625 -6.453125 C 25.625 -2.148438 23.070312 0 17.96875 0 L 2.609375 0 Z M 16.515625 -7.140625 L 16.515625 -26.296875 C 16.515625 -27.054688 16.078125 -27.4375 15.203125 -27.4375 L 11.71875 -27.4375 L 11.71875 -5.984375 L 15.203125 -5.984375 C 16.078125 -5.984375 16.515625 -6.367188 16.515625 -7.140625 Z M 16.515625 -7.140625 "/></g></g></g><g fill="#184b81" fill-opacity="1"><g transform="translate(101.881357, 248.113592)"><g><path d="M 9.21875 -25.984375 L 15.828125 -25.984375 C 18.472656 -25.984375 20.367188 -25.425781 21.515625 -24.3125 C 22.660156 -23.207031 23.234375 -21.613281 23.234375 -19.53125 L 23.234375 -6.453125 C 23.234375 -4.367188 22.660156 -2.769531 21.515625 -1.65625 C 20.367188 -0.550781 18.472656 0 15.828125 0 L 9.21875 0 C 6.582031 0 4.691406 -0.550781 3.546875 -1.65625 C 2.398438 -2.769531 1.828125 -4.367188 1.828125 -6.453125 L 1.828125 -19.53125 C 1.828125 -21.613281 2.398438 -23.207031 3.546875 -24.3125 C 4.691406 -25.425781 6.582031 -25.984375 9.21875 -25.984375 Z M 14.53125 -7.296875 L 14.53125 -18.703125 C 14.53125 -19.460938 14.097656 -19.84375 13.234375 -19.84375 L 11.828125 -19.84375 C 10.953125 -19.84375 10.515625 -19.460938 10.515625 -18.703125 L 10.515625 -7.296875 C 10.515625 -6.523438 10.953125 -6.140625 11.828125 -6.140625 L 13.234375 -6.140625 C 14.097656 -6.140625 14.53125 -6.523438 14.53125 -7.296875 Z M 14.53125 -7.296875 "/></g></g></g><g fill="#184b81" fill-opacity="1"><g transform="translate(126.930939, 248.113592)"><g><path d="M 14.265625 -25.984375 L 23.125 -25.984375 L 23.125 0 L 14.421875 0 L 14.421875 -3.328125 C 13.941406 -1.109375 12.363281 0 9.6875 0 L 8.75 0 C 4.132812 0 1.828125 -2.148438 1.828125 -6.453125 L 1.828125 -25.984375 L 10.671875 -25.984375 L 10.671875 -7.65625 C 10.671875 -6.894531 11.109375 -6.515625 11.984375 -6.515625 L 12.859375 -6.515625 C 13.796875 -6.515625 14.265625 -7.035156 14.265625 -8.078125 Z M 14.265625 -25.984375 "/></g></g></g><g fill="#184b81" fill-opacity="1"><g transform="translate(152.136756, 248.113592)"><g><path d="M 14.171875 -25.984375 L 22.859375 -25.984375 L 22.859375 0.265625 C 22.859375 4.566406 20.304688 6.71875 15.203125 6.71875 L 2.765625 6.71875 L 2.765625 0.46875 L 12.703125 0.46875 C 13.578125 0.46875 14.015625 0.0859375 14.015625 -0.671875 L 14.015625 -4.375 C 13.347656 -2.5 11.816406 -1.5625 9.421875 -1.5625 L 8.484375 -1.5625 C 3.867188 -1.5625 1.5625 -3.710938 1.5625 -8.015625 L 1.5625 -19.53125 C 1.5625 -23.832031 3.867188 -25.984375 8.484375 -25.984375 L 9.421875 -25.984375 C 12.097656 -25.984375 13.679688 -24.875 14.171875 -22.65625 Z M 11.71875 -8.078125 L 12.609375 -8.078125 C 13.546875 -8.078125 14.015625 -8.597656 14.015625 -9.640625 L 14.015625 -17.921875 C 14.015625 -18.960938 13.546875 -19.484375 12.609375 -19.484375 L 11.71875 -19.484375 C 10.851562 -19.484375 10.421875 -19.097656 10.421875 -18.328125 L 10.421875 -9.21875 C 10.421875 -8.457031 10.851562 -8.078125 11.71875 -8.078125 Z M 11.71875 -8.078125 "/></g></g></g><g fill="#184b81" fill-opacity="1"><g transform="translate(177.082173, 248.113592)"><g><path d="M 10.9375 0 L 2.078125 0 L 2.078125 -34.84375 L 10.9375 -34.84375 Z M 10.9375 0 "/></g></g></g><g fill="#184b81" fill-opacity="1"><g transform="translate(190.101704, 248.113592)"><g><path d="M 14.171875 -25.984375 L 22.859375 -25.984375 L 22.859375 0 L 14.015625 0 L 14.015625 -2.8125 C 13.347656 -0.9375 11.816406 0 9.421875 0 L 8.484375 0 C 3.867188 0 1.5625 -2.148438 1.5625 -6.453125 L 1.5625 -19.53125 C 1.5625 -23.832031 3.867188 -25.984375 8.484375 -25.984375 L 9.421875 -25.984375 C 12.097656 -25.984375 13.679688 -24.875 14.171875 -22.65625 Z M 11.71875 -6.515625 L 12.609375 -6.515625 C 13.546875 -6.515625 14.015625 -7.035156 14.015625 -8.078125 L 14.015625 -17.921875 C 14.015625 -18.960938 13.546875 -19.484375 12.609375 -19.484375 L 11.71875 -19.484375 C 10.851562 -19.484375 10.421875 -19.097656 10.421875 -18.328125 L 10.421875 -7.65625 C 10.421875 -6.894531 10.851562 -6.515625 11.71875 -6.515625 Z M 11.71875 -6.515625 "/></g></g></g><g fill="#184b81" fill-opacity="1"><g transform="translate(215.047121, 248.113592)"><g><path d="M 13.28125 -6.875 L 13.28125 -8.953125 C 13.28125 -9.722656 12.847656 -10.109375 11.984375 -10.109375 L 8.796875 -10.109375 C 3.796875 -10.109375 1.296875 -12.242188 1.296875 -16.515625 L 1.296875 -19.53125 C 1.296875 -23.832031 3.847656 -25.984375 8.953125 -25.984375 L 13.796875 -25.984375 C 18.898438 -25.984375 21.453125 -23.832031 21.453125 -19.53125 L 21.453125 -17.34375 L 13.015625 -17.34375 L 13.015625 -19.109375 C 13.015625 -19.878906 12.582031 -20.265625 11.71875 -20.265625 L 11.203125 -20.265625 C 10.328125 -20.265625 9.890625 -19.878906 9.890625 -19.109375 L 9.890625 -16.828125 C 9.890625 -16.054688 10.328125 -15.671875 11.203125 -15.671875 L 14.375 -15.671875 C 17.050781 -15.671875 18.96875 -15.125 20.125 -14.03125 C 21.289062 -12.9375 21.875 -11.367188 21.875 -9.328125 L 21.875 -6.453125 C 21.875 -2.148438 19.320312 0 14.21875 0 L 9.109375 0 C 4.003906 0 1.453125 -2.148438 1.453125 -6.453125 L 1.453125 -8.59375 L 10.046875 -8.59375 L 10.046875 -6.875 C 10.046875 -6.113281 10.484375 -5.734375 11.359375 -5.734375 L 11.984375 -5.734375 C 12.847656 -5.734375 13.28125 -6.113281 13.28125 -6.875 Z M 13.28125 -6.875 "/></g></g></g><g fill="#184b81" fill-opacity="1"><g transform="translate(238.221887, 248.113592)"><g/></g></g><g fill="#184b81" fill-opacity="1"><g transform="translate(248.637509, 248.113592)"><g><path d="M 2.078125 -33.4375 L 17.546875 -33.4375 C 22.648438 -33.4375 25.203125 -31.28125 25.203125 -26.96875 L 25.203125 -17.390625 C 25.203125 -13.085938 22.648438 -10.9375 17.546875 -10.9375 L 11.203125 -10.9375 L 11.203125 0 L 2.078125 0 Z M 16.09375 -18.59375 L 16.09375 -25.78125 C 16.09375 -26.539062 15.660156 -26.921875 14.796875 -26.921875 L 11.203125 -26.921875 L 11.203125 -17.453125 L 14.796875 -17.453125 C 15.660156 -17.453125 16.09375 -17.832031 16.09375 -18.59375 Z M 16.09375 -18.59375 "/></g></g></g><g fill="#184b81" fill-opacity="1"><g transform="translate(274.884874, 248.113592)"><g><path d="M 24.484375 -20.9375 L 15.359375 -20.9375 L 15.359375 -26.296875 C 15.359375 -27.054688 14.925781 -27.4375 14.0625 -27.4375 L 12.234375 -27.4375 C 11.367188 -27.4375 10.9375 -27.054688 10.9375 -26.296875 L 10.9375 -7.140625 C 10.9375 -6.367188 11.367188 -5.984375 12.234375 -5.984375 L 14.0625 -5.984375 C 14.925781 -5.984375 15.359375 -6.367188 15.359375 -7.140625 L 15.359375 -12.296875 L 24.484375 -12.296875 L 24.484375 -6.453125 C 24.484375 -2.148438 21.929688 0 16.828125 0 L 9.484375 0 C 4.378906 0 1.828125 -2.148438 1.828125 -6.453125 L 1.828125 -26.96875 C 1.828125 -31.28125 4.378906 -33.4375 9.484375 -33.4375 L 16.828125 -33.4375 C 21.929688 -33.4375 24.484375 -31.28125 24.484375 -26.96875 Z M 24.484375 -20.9375 "/></g></g></g><g fill="#279dd7" fill-opacity="1"><g transform="translate(121.260968, 286.928184)"><g><path d="M 10.53125 -15.828125 L 10.53125 -12.75 L 7.46875 -12.75 L 7.46875 0 L 3.15625 0 L 3.15625 -12.75 L 0.125 -12.75 L 0.125 -15.828125 Z M 10.53125 -15.828125 "/></g></g></g><g fill="#279dd7" fill-opacity="1"><g transform="translate(133.140274, 286.928184)"><g><path d="M 5.296875 -3.078125 L 10.703125 -3.078125 L 10.703125 0 L 0.984375 0 L 0.984375 -15.828125 L 10.484375 -15.828125 L 10.484375 -12.75 L 5.296875 -12.75 L 5.296875 -9.515625 L 9.765625 -9.515625 L 9.765625 -6.4375 L 5.296875 -6.4375 Z M 5.296875 -3.078125 "/></g></g></g><g fill="#279dd7" fill-opacity="1"><g transform="translate(145.438526, 286.928184)"><g><path d="M 11.59375 -9.90625 L 7.28125 -9.90625 L 7.28125 -12.453125 C 7.28125 -12.816406 7.070312 -13 6.65625 -13 L 5.796875 -13 C 5.378906 -13 5.171875 -12.816406 5.171875 -12.453125 L 5.171875 -3.375 C 5.171875 -3.007812 5.378906 -2.828125 5.796875 -2.828125 L 6.65625 -2.828125 C 7.070312 -2.828125 7.28125 -3.007812 7.28125 -3.375 L 7.28125 -5.8125 L 11.59375 -5.8125 L 11.59375 -3.0625 C 11.59375 -1.019531 10.382812 0 7.96875 0 L 4.484375 0 C 2.066406 0 0.859375 -1.019531 0.859375 -3.0625 L 0.859375 -12.765625 C 0.859375 -14.804688 2.066406 -15.828125 4.484375 -15.828125 L 7.96875 -15.828125 C 10.382812 -15.828125 11.59375 -14.804688 11.59375 -12.765625 Z M 11.59375 -9.90625 "/></g></g></g><g fill="#279dd7" fill-opacity="1"><g transform="translate(158.87043, 286.928184)"><g><path d="M 8.328125 -15.828125 L 12.578125 -15.828125 L 12.578125 0 L 8.328125 0 L 8.328125 -6.265625 L 5.234375 -6.265625 L 5.234375 0 L 0.984375 0 L 0.984375 -15.828125 L 5.234375 -15.828125 L 5.234375 -9.34375 L 8.328125 -9.34375 Z M 8.328125 -15.828125 "/></g></g></g><g fill="#279dd7" fill-opacity="1"><g transform="translate(173.657784, 286.928184)"><g><path d="M 8.203125 -15.828125 L 12.15625 -15.828125 L 12.15625 0 L 8.453125 0 L 4.9375 -8.3125 L 4.9375 0 L 0.984375 0 L 0.984375 -15.828125 L 4.6875 -15.828125 L 8.203125 -7.375 Z M 8.203125 -15.828125 "/></g></g></g><g fill="#279dd7" fill-opacity="1"><g transform="translate(188.026183, 286.928184)"><g><path d="M 4.53125 -15.828125 L 8.1875 -15.828125 C 10.601562 -15.828125 11.8125 -14.804688 11.8125 -12.765625 L 11.8125 -3.0625 C 11.8125 -1.019531 10.601562 0 8.1875 0 L 4.53125 0 C 2.113281 0 0.90625 -1.019531 0.90625 -3.0625 L 0.90625 -12.765625 C 0.90625 -14.804688 2.113281 -15.828125 4.53125 -15.828125 Z M 7.5 -3.625 L 7.5 -12.203125 C 7.5 -12.566406 7.289062 -12.75 6.875 -12.75 L 5.84375 -12.75 C 5.4375 -12.75 5.234375 -12.566406 5.234375 -12.203125 L 5.234375 -3.625 C 5.234375 -3.257812 5.4375 -3.078125 5.84375 -3.078125 L 6.875 -3.078125 C 7.289062 -3.078125 7.5 -3.257812 7.5 -3.625 Z M 7.5 -3.625 "/></g></g></g><g fill="#279dd7" fill-opacity="1"><g transform="translate(201.975626, 286.928184)"><g><path d="M 5.296875 -3.078125 L 10.203125 -3.078125 L 10.203125 0 L 0.984375 0 L 0.984375 -15.828125 L 5.296875 -15.828125 Z M 5.296875 -3.078125 "/></g></g></g><g fill="#279dd7" fill-opacity="1"><g transform="translate(213.411322, 286.928184)"><g><path d="M 4.53125 -15.828125 L 8.1875 -15.828125 C 10.601562 -15.828125 11.8125 -14.804688 11.8125 -12.765625 L 11.8125 -3.0625 C 11.8125 -1.019531 10.601562 0 8.1875 0 L 4.53125 0 C 2.113281 0 0.90625 -1.019531 0.90625 -3.0625 L 0.90625 -12.765625 C 0.90625 -14.804688 2.113281 -15.828125 4.53125 -15.828125 Z M 7.5 -3.625 L 7.5 -12.203125 C 7.5 -12.566406 7.289062 -12.75 6.875 -12.75 L 5.84375 -12.75 C 5.4375 -12.75 5.234375 -12.566406 5.234375 -12.203125 L 5.234375 -3.625 C 5.234375 -3.257812 5.4375 -3.078125 5.84375 -3.078125 L 6.875 -3.078125 C 7.289062 -3.078125 7.5 -3.257812 7.5 -3.625 Z M 7.5 -3.625 "/></g></g></g><g fill="#279dd7" fill-opacity="1"><g transform="translate(227.36076, 286.928184)"><g><path d="M 11.609375 -10.40625 L 7.296875 -10.40625 L 7.296875 -12.453125 C 7.296875 -12.816406 7.09375 -13 6.6875 -13 L 5.796875 -13 C 5.378906 -13 5.171875 -12.816406 5.171875 -12.453125 L 5.171875 -3.375 C 5.171875 -3.007812 5.378906 -2.828125 5.796875 -2.828125 L 6.6875 -2.828125 C 7.09375 -2.828125 7.296875 -3.007812 7.296875 -3.375 L 7.296875 -6.015625 L 6.0625 -6.015625 L 6.0625 -8.75 L 11.609375 -8.75 L 11.609375 -3.0625 C 11.609375 -1.019531 10.398438 0 7.984375 0 L 4.484375 0 C 2.066406 0 0.859375 -1.019531 0.859375 -3.0625 L 0.859375 -12.765625 C 0.859375 -14.804688 2.066406 -15.828125 4.484375 -15.828125 L 7.984375 -15.828125 C 10.398438 -15.828125 11.609375 -14.804688 11.609375 -12.765625 Z M 11.609375 -10.40625 "/></g></g></g><g fill="#279dd7" fill-opacity="1"><g transform="translate(240.940535, 286.928184)"><g><path d="M 8.671875 0 L 4.359375 0 L 4.359375 -5.125 L 0 -15.828125 L 4.40625 -15.828125 L 6.484375 -9.140625 L 8.40625 -15.828125 L 12.796875 -15.828125 L 8.671875 -5.171875 Z M 8.671875 0 "/></g></g></g></svg>